<svg width="80" height="124" viewBox="0 0 80 124" fill="none" xmlns="http://www.w3.org/2000/svg">
<path d="M40 80C62.0914 80 80 62.0914 80 40C80 17.9086 62.0914 0 40 0C17.9086 0 0 17.9086 0 40C0 62.0914 17.9086 80 40 80Z" fill="#0F4C81"/>
<path d="M41.6114 23.0846C39.4245 23.3004 37.3527 24.1674 35.6639 25.5733C35.5751 24.5086 35.2552 23.476 34.7265 22.5475C34.1978 21.619 33.473 20.817 32.6026 20.1973C35.218 18.2873 38.3211 17.1578 41.5523 16.9398C44.7835 16.7217 48.0103 17.424 50.8586 18.9653C51.5453 19.3689 52.0484 20.0234 52.2618 20.7908C52.4751 21.5582 52.3821 22.3785 52.0023 23.0786C51.6225 23.7788 50.9856 24.304 50.226 24.5436C49.4663 24.7831 48.6433 24.7183 47.9306 24.3627C45.9995 23.314 43.7982 22.8687 41.6114 23.0846Z" fill="#FAFAFA"/>
<path d="M32.9488 39.0293C33.9564 40.9771 35.5244 42.5783 37.4506 43.6267V43.648C38.1373 44.0516 38.6404 44.7061 38.8538 45.4735C39.0671 46.2409 38.9741 47.0612 38.5943 47.7613C38.2145 48.4614 37.5776 48.9867 36.818 49.2262C36.0583 49.4658 35.2353 49.4009 34.5226 49.0453C31.6745 47.496 29.3249 45.1697 27.7472 42.3372C26.1695 39.5047 25.4286 36.2825 25.6106 33.0453C26.6045 33.443 27.6735 33.618 28.7424 33.5581C29.8112 33.4982 30.854 33.2048 31.7973 32.6987C31.5401 34.8765 31.9411 37.0815 32.9488 39.0293Z" fill="#FAFAFA"/>
<path d="M28.0107 31.0667C30.7913 31.0667 33.0454 28.8126 33.0454 26.032C33.0454 23.2514 30.7913 20.9973 28.0107 20.9973C25.2301 20.9973 22.976 23.2514 22.976 26.032C22.976 28.8126 25.2301 31.0667 28.0107 31.0667Z" fill="#FAFAFA"/>
<path d="M47.0495 40.9738C48.0571 42.9205 48.4587 45.1243 48.2026 47.3013C49.1483 46.7963 50.1927 46.5037 51.263 46.4438C52.3334 46.384 53.4039 46.5583 54.4 46.9547C54.5771 43.7206 53.8327 40.5027 52.2532 37.6751C50.6737 34.8475 48.324 32.5263 45.4773 30.9813C44.7646 30.6257 43.9416 30.5609 43.1819 30.8004C42.4223 31.04 41.7854 31.5652 41.4056 32.2653C41.0258 32.9655 40.9328 33.7858 41.1461 34.5532C41.3595 35.3206 41.8626 35.9751 42.5493 36.3787C44.4746 37.4266 46.042 39.0271 47.0495 40.9738Z" fill="#FAFAFA"/>
<path d="M32.0906 55.6427C34.022 56.6913 36.2237 57.1361 38.4108 56.9193C40.5978 56.7025 42.6694 55.8341 44.3573 54.4267C44.4478 55.4941 44.7707 56.5288 45.3032 57.4584C45.8357 58.388 46.565 59.1899 47.4399 59.808C44.8246 61.718 41.7214 62.8475 38.4902 63.0656C35.259 63.2836 32.0322 62.5813 29.1839 61.04C28.4972 60.6364 27.9941 59.9819 27.7808 59.2145C27.5674 58.4471 27.6604 57.6268 28.0402 56.9267C28.4201 56.2265 29.057 55.7013 29.8166 55.4618C30.5762 55.2222 31.3992 55.2871 32.1119 55.6427H32.0906Z" fill="#FAFAFA"/>
<path d="M57.024 53.9733C57.024 56.7539 54.7699 59.008 51.9894 59.008C49.2088 59.008 46.9547 56.7539 46.9547 53.9733C46.9547 51.1928 49.2088 48.9387 51.9894 48.9387C54.7699 48.9387 57.024 51.1928 57.024 53.9733Z" fill="#FAFAFA"/>
<path d="M4.48403 122V95.432H8.91203V106.916H20.108V95.432H24.572V122H20.108V110.912H8.91203V122H4.48403ZM28.9384 122V95.432H39.7384C40.7224 95.432 41.6464 95.552 42.5104 95.792C43.3984 96.008 44.1784 96.416 44.8504 97.016C45.5464 97.616 46.0864 98.456 46.4704 99.536C46.8784 100.592 47.0824 101.972 47.0824 103.676C47.0824 104.996 46.9504 106.1 46.6864 106.988C46.4224 107.852 46.0744 108.56 45.6424 109.112C45.2104 109.664 44.7184 110.096 44.1664 110.408C43.6384 110.696 43.1104 110.936 42.5824 111.128L47.6944 122H43.1944L38.5864 111.776C38.2504 111.776 37.8544 111.776 37.3984 111.776C36.9664 111.776 36.5104 111.776 36.0304 111.776C35.5504 111.752 35.0824 111.74 34.6264 111.74C34.1704 111.716 33.7504 111.704 33.3664 111.704V122H28.9384ZM33.3664 108.212H38.9824C39.5104 108.212 39.9904 108.152 40.4224 108.032C40.8544 107.888 41.2384 107.648 41.5744 107.312C41.9104 106.976 42.1624 106.52 42.3304 105.944C42.5224 105.368 42.6184 104.624 42.6184 103.712C42.6184 102.824 42.5224 102.104 42.3304 101.552C42.1624 100.976 41.9104 100.544 41.5744 100.256C41.2384 99.944 40.8424 99.728 40.3864 99.608C39.9544 99.488 39.4864 99.428 38.9824 99.428H33.3664V108.212ZM50.6507 122V95.432H55.0787V122H50.6507ZM67.2734 122.216C66.6254 122.216 65.9294 122.192 65.1854 122.144C64.4654 122.12 63.7214 122.072 62.9534 122C62.2094 121.904 61.5014 121.82 60.8294 121.748C60.1574 121.652 59.5574 121.544 59.0294 121.424V117.932C59.7014 117.98 60.4814 118.028 61.3694 118.076C62.2814 118.124 63.2294 118.16 64.2134 118.184C65.1974 118.208 66.1454 118.22 67.0574 118.22C68.0174 118.22 68.8694 118.136 69.6134 117.968C70.3574 117.776 70.9334 117.452 71.3414 116.996C71.7494 116.54 71.9534 115.892 71.9534 115.052V113.792C71.9534 112.856 71.6894 112.136 71.1614 111.632C70.6334 111.128 69.8534 110.876 68.8214 110.876H66.3374C63.9134 110.876 62.0414 110.348 60.7214 109.292C59.4254 108.236 58.7774 106.424 58.7774 103.856V102.488C58.7774 99.92 59.4854 98.072 60.9014 96.944C62.3414 95.792 64.3934 95.216 67.0574 95.216C67.9694 95.216 68.9054 95.264 69.8654 95.36C70.8494 95.432 71.7854 95.528 72.6734 95.648C73.5614 95.768 74.3174 95.9 74.9414 96.044V99.536C73.8854 99.464 72.6734 99.392 71.3054 99.32C69.9614 99.248 68.7134 99.212 67.5614 99.212C66.6494 99.212 65.8454 99.308 65.1494 99.5C64.4534 99.692 63.9254 100.04 63.5654 100.544C63.2054 101.024 63.0254 101.744 63.0254 102.704V103.568C63.0254 104.696 63.3254 105.488 63.9254 105.944C64.5494 106.4 65.4374 106.628 66.5894 106.628H69.3614C70.9214 106.628 72.2054 106.916 73.2134 107.492C74.2214 108.068 74.9654 108.86 75.4454 109.868C75.9494 110.852 76.2014 111.98 76.2014 113.252V114.944C76.2014 116.912 75.8174 118.424 75.0494 119.48C74.2814 120.536 73.2254 121.256 71.8814 121.64C70.5374 122.024 69.0014 122.216 67.2734 122.216Z" fill="#262626"/>
</svg>
