<svg width="122" height="46" viewBox="0 0 122 46" fill="none" xmlns="http://www.w3.org/2000/svg">
<path d="M23 46C35.7025 46 46 35.7025 46 23C46 10.2975 35.7025 0 23 0C10.2975 0 0 10.2975 0 23C0 35.7025 10.2975 46 23 46Z" fill="#0F4C81"/>
<path d="M23.9265 13.2736C22.6691 13.3977 21.4778 13.8962 20.5068 14.7047C20.4557 14.0924 20.2717 13.4987 19.9677 12.9648C19.6637 12.431 19.247 11.9698 18.7465 11.6135C20.2503 10.5152 22.0347 9.86574 23.8926 9.74036C25.7505 9.61498 27.6059 10.0188 29.2437 10.9051C29.6385 11.1371 29.9278 11.5135 30.0505 11.9547C30.1732 12.396 30.1197 12.8676 29.9013 13.2702C29.6829 13.6728 29.3167 13.9748 28.8799 14.1125C28.4431 14.2503 27.9699 14.213 27.5601 14.0085C26.4497 13.4055 25.184 13.1495 23.9265 13.2736Z" fill="#FAFAFA"/>
<path d="M18.9455 22.4418C19.5249 23.5618 20.4265 24.4825 21.5341 25.0853V25.0976C21.9289 25.3297 22.2182 25.706 22.3409 26.1473C22.4636 26.5885 22.4101 27.0602 22.1917 27.4628C21.9733 27.8653 21.6071 28.1673 21.1703 28.3051C20.7335 28.4428 20.2603 28.4055 19.8505 28.2011C18.2128 27.3102 16.8618 25.9726 15.9546 24.3439C15.0475 22.7152 14.6214 20.8624 14.7261 19.0011C15.2976 19.2297 15.9123 19.3303 16.5269 19.2959C17.1415 19.2615 17.741 19.0928 18.2834 18.8017C18.1355 20.054 18.3662 21.3219 18.9455 22.4418Z" fill="#FAFAFA"/>
<path d="M16.1062 17.8633C17.705 17.8633 19.0011 16.5672 19.0011 14.9684C19.0011 13.3696 17.705 12.0735 16.1062 12.0735C14.5073 12.0735 13.2112 13.3696 13.2112 14.9684C13.2112 16.5672 14.5073 17.8633 16.1062 17.8633Z" fill="#FAFAFA"/>
<path d="M27.0535 23.5599C27.6328 24.6793 27.8638 25.9465 27.7165 27.1983C28.2603 26.9079 28.8608 26.7396 29.4762 26.7052C30.0917 26.6708 30.7073 26.771 31.28 26.9989C31.3818 25.1394 30.9538 23.2891 30.0456 21.6632C29.1374 20.0373 27.7863 18.7026 26.1495 17.8143C25.7396 17.6098 25.2664 17.5725 24.8296 17.7102C24.3928 17.848 24.0266 18.15 23.8082 18.5526C23.5898 18.9551 23.5363 19.4268 23.659 19.8681C23.7817 20.3093 24.071 20.6857 24.4658 20.9177C25.5729 21.5203 26.4741 22.4406 27.0535 23.5599Z" fill="#FAFAFA"/>
<path d="M18.4521 31.9945C19.5627 32.5975 20.8287 32.8532 22.0862 32.7286C23.3437 32.6039 24.5349 32.1046 25.5054 31.2953C25.5575 31.9091 25.7431 32.5041 26.0493 33.0386C26.3555 33.5731 26.7749 34.0342 27.278 34.3896C25.7741 35.4878 23.9898 36.1373 22.1319 36.2627C20.2739 36.3881 18.4185 35.9842 16.7808 35.098C16.3859 34.8659 16.0966 34.4896 15.9739 34.0483C15.8513 33.6071 15.9047 33.1354 16.1231 32.7328C16.3415 32.3303 16.7077 32.0283 17.1445 31.8905C17.5813 31.7528 18.0545 31.7901 18.4644 31.9945H18.4521Z" fill="#FAFAFA"/>
<path d="M32.7888 31.0347C32.7888 32.6335 31.4927 33.9296 29.8939 33.9296C28.295 33.9296 26.9989 32.6335 26.9989 31.0347C26.9989 29.4358 28.295 28.1397 29.8939 28.1397C31.4927 28.1397 32.7888 29.4358 32.7888 31.0347Z" fill="#FAFAFA"/>
<path d="M56.4303 33.5V9.884H60.3663V20.092H70.3183V9.884H74.2863V33.5H70.3183V23.644H60.3663V33.5H56.4303ZM78.1675 33.5V9.884H87.7675C88.6422 9.884 89.4635 9.99067 90.2315 10.204C91.0208 10.396 91.7142 10.7587 92.3115 11.292C92.9302 11.8253 93.4102 12.572 93.7515 13.532C94.1142 14.4707 94.2955 15.6973 94.2955 17.212C94.2955 18.3853 94.1782 19.3667 93.9435 20.156C93.7088 20.924 93.3995 21.5533 93.0155 22.044C92.6315 22.5347 92.1942 22.9187 91.7035 23.196C91.2342 23.452 90.7648 23.6653 90.2955 23.836L94.8395 33.5H90.8395L86.7435 24.412C86.4448 24.412 86.0928 24.412 85.6875 24.412C85.3035 24.412 84.8982 24.412 84.4715 24.412C84.0448 24.3907 83.6288 24.38 83.2235 24.38C82.8182 24.3587 82.4448 24.348 82.1035 24.348V33.5H78.1675ZM82.1035 21.244H87.0955C87.5648 21.244 87.9915 21.1907 88.3755 21.084C88.7595 20.956 89.1008 20.7427 89.3995 20.444C89.6982 20.1453 89.9222 19.74 90.0715 19.228C90.2422 18.716 90.3275 18.0547 90.3275 17.244C90.3275 16.4547 90.2422 15.8147 90.0715 15.324C89.9222 14.812 89.6982 14.428 89.3995 14.172C89.1008 13.8947 88.7488 13.7027 88.3435 13.596C87.9595 13.4893 87.5435 13.436 87.0955 13.436H82.1035V21.244ZM97.4673 33.5V9.884H101.403V33.5H97.4673ZM112.243 33.692C111.667 33.692 111.048 33.6707 110.387 33.628C109.747 33.6067 109.086 33.564 108.403 33.5C107.742 33.4147 107.112 33.34 106.515 33.276C105.918 33.1907 105.384 33.0947 104.915 32.988V29.884C105.512 29.9267 106.206 29.9693 106.995 30.012C107.806 30.0547 108.648 30.0867 109.523 30.108C110.398 30.1293 111.24 30.14 112.051 30.14C112.904 30.14 113.662 30.0653 114.323 29.916C114.984 29.7453 115.496 29.4573 115.859 29.052C116.222 28.6467 116.403 28.0707 116.403 27.324V26.204C116.403 25.372 116.168 24.732 115.699 24.284C115.23 23.836 114.536 23.612 113.619 23.612H111.411C109.256 23.612 107.592 23.1427 106.419 22.204C105.267 21.2653 104.691 19.6547 104.691 17.372V16.156C104.691 13.8733 105.32 12.2307 106.579 11.228C107.859 10.204 109.683 9.692 112.051 9.692C112.862 9.692 113.694 9.73467 114.547 9.82C115.422 9.884 116.254 9.96933 117.043 10.076C117.832 10.1827 118.504 10.3 119.059 10.428V13.532C118.12 13.468 117.043 13.404 115.827 13.34C114.632 13.276 113.523 13.244 112.499 13.244C111.688 13.244 110.974 13.3293 110.355 13.5C109.736 13.6707 109.267 13.98 108.947 14.428C108.627 14.8547 108.467 15.4947 108.467 16.348V17.116C108.467 18.1187 108.734 18.8227 109.267 19.228C109.822 19.6333 110.611 19.836 111.635 19.836H114.099C115.486 19.836 116.627 20.092 117.523 20.604C118.419 21.116 119.08 21.82 119.507 22.716C119.955 23.5907 120.179 24.5933 120.179 25.724V27.228C120.179 28.9773 119.838 30.3213 119.155 31.26C118.472 32.1987 117.534 32.8387 116.339 33.18C115.144 33.5213 113.779 33.692 112.243 33.692Z" fill="#262626"/>
</svg>
