<svg width="80" height="80" viewBox="0 0 80 80" fill="none" xmlns="http://www.w3.org/2000/svg">
<path d="M40 80C62.0914 80 80 62.0914 80 40C80 17.9086 62.0914 0 40 0C17.9086 0 0 17.9086 0 40C0 62.0914 17.9086 80 40 80Z" fill="#0F4C81"/>
<path d="M41.6114 23.0846C39.4245 23.3004 37.3527 24.1674 35.6639 25.5733C35.5751 24.5086 35.2552 23.476 34.7265 22.5475C34.1978 21.619 33.473 20.817 32.6026 20.1973C35.218 18.2873 38.3211 17.1578 41.5523 16.9398C44.7835 16.7217 48.0103 17.424 50.8586 18.9653C51.5453 19.3689 52.0484 20.0234 52.2618 20.7908C52.4751 21.5582 52.3821 22.3785 52.0023 23.0786C51.6225 23.7788 50.9856 24.304 50.226 24.5436C49.4663 24.7831 48.6433 24.7183 47.9306 24.3627C45.9995 23.314 43.7982 22.8687 41.6114 23.0846Z" fill="#FAFAFA"/>
<path d="M32.9488 39.0293C33.9564 40.9771 35.5244 42.5783 37.4506 43.6267V43.648C38.1373 44.0516 38.6404 44.7061 38.8538 45.4735C39.0671 46.2409 38.9741 47.0612 38.5943 47.7613C38.2145 48.4614 37.5776 48.9867 36.818 49.2262C36.0583 49.4658 35.2353 49.4009 34.5226 49.0453C31.6745 47.496 29.3249 45.1697 27.7472 42.3372C26.1695 39.5047 25.4286 36.2825 25.6106 33.0453C26.6045 33.443 27.6735 33.618 28.7424 33.5581C29.8112 33.4982 30.854 33.2048 31.7973 32.6987C31.5401 34.8765 31.9411 37.0815 32.9488 39.0293Z" fill="#FAFAFA"/>
<path d="M28.0107 31.0667C30.7913 31.0667 33.0454 28.8126 33.0454 26.032C33.0454 23.2514 30.7913 20.9973 28.0107 20.9973C25.2301 20.9973 22.976 23.2514 22.976 26.032C22.976 28.8126 25.2301 31.0667 28.0107 31.0667Z" fill="#FAFAFA"/>
<path d="M47.0495 40.9738C48.0571 42.9205 48.4587 45.1243 48.2026 47.3013C49.1483 46.7963 50.1927 46.5037 51.263 46.4438C52.3334 46.384 53.4039 46.5583 54.4 46.9547C54.5771 43.7206 53.8327 40.5027 52.2532 37.6751C50.6737 34.8475 48.324 32.5263 45.4773 30.9813C44.7646 30.6257 43.9416 30.5609 43.1819 30.8004C42.4223 31.04 41.7854 31.5652 41.4056 32.2653C41.0258 32.9655 40.9328 33.7858 41.1461 34.5532C41.3595 35.3206 41.8626 35.9751 42.5493 36.3787C44.4746 37.4266 46.042 39.0271 47.0495 40.9738Z" fill="#FAFAFA"/>
<path d="M32.0906 55.6427C34.022 56.6913 36.2237 57.1361 38.4108 56.9193C40.5978 56.7025 42.6694 55.8341 44.3573 54.4267C44.4478 55.4941 44.7707 56.5288 45.3032 57.4584C45.8357 58.388 46.565 59.1899 47.4399 59.808C44.8246 61.718 41.7214 62.8475 38.4902 63.0656C35.259 63.2836 32.0322 62.5813 29.1839 61.04C28.4972 60.6364 27.9941 59.9819 27.7808 59.2145C27.5674 58.4471 27.6604 57.6268 28.0402 56.9267C28.4201 56.2265 29.057 55.7013 29.8166 55.4618C30.5762 55.2222 31.3992 55.2871 32.1119 55.6427H32.0906Z" fill="#FAFAFA"/>
<path d="M57.024 53.9733C57.024 56.7539 54.7699 59.008 51.9894 59.008C49.2088 59.008 46.9547 56.7539 46.9547 53.9733C46.9547 51.1928 49.2088 48.9387 51.9894 48.9387C54.7699 48.9387 57.024 51.1928 57.024 53.9733Z" fill="#FAFAFA"/>
</svg>
