<svg width="80" height="116" viewBox="0 0 80 116" fill="none" xmlns="http://www.w3.org/2000/svg">
<path d="M40 80C62.0914 80 80 62.0914 80 40C80 17.9086 62.0914 0 40 0C17.9086 0 0 17.9086 0 40C0 62.0914 17.9086 80 40 80Z" fill="#0F4C81"/>
<path d="M22.9333 24.672H52.0426C53.0702 24.6818 54.0526 25.0958 54.7772 25.8245C55.5019 26.5531 55.9105 27.5377 55.9146 28.5653V35.1413L43.4453 43.3227L41.6906 40.864C42.6395 40.1489 43.3905 39.2037 43.8727 38.1177C44.3549 37.0318 44.5523 35.8409 44.4465 34.6574C44.3406 33.474 43.935 32.337 43.2677 31.3538C42.6005 30.3707 41.6937 29.5738 40.633 29.0384C39.5723 28.503 38.3926 28.2467 37.2053 28.2938C36.0181 28.3408 34.8624 28.6897 33.8474 29.3074C32.8324 29.9251 31.9915 30.7913 31.4042 31.8241C30.8169 32.857 30.5025 34.0225 30.4906 35.2107L19.1146 42.6773C19.0655 42.4207 19.0405 42.16 19.04 41.8987V28.5653C19.0442 27.5341 19.4557 26.5462 20.185 25.817C20.9142 25.0878 21.902 24.6762 22.9333 24.672Z" fill="#FAFAFA"/>
<path d="M59.696 32.8213L67.4347 32.0747C67.7768 32.0368 68.1229 32.0901 68.4378 32.2291C68.7527 32.3682 69.0252 32.588 69.2277 32.8663C69.4302 33.1447 69.5556 33.4716 69.591 33.814C69.6264 34.1564 69.5706 34.5021 69.4293 34.816L66.1973 41.9147C66.0542 42.2276 65.8314 42.4974 65.5511 42.697C65.2708 42.8966 64.943 43.0191 64.6005 43.052C64.2579 43.085 63.9128 43.0273 63.5996 42.8848C63.2864 42.7423 63.0162 42.5199 62.816 42.24L61.8667 40.9013L43.056 53.232L43.008 53.2693C42.7496 53.4592 42.4539 53.592 42.1404 53.6591C41.8269 53.7262 41.5028 53.7261 41.1893 53.6587L41.0667 53.6213C41.0457 53.627 41.0236 53.627 41.0027 53.6213C40.4797 53.4729 40.0285 53.1392 39.7333 52.6827L39.696 52.6347L33.1733 43.4773L15.6587 54.9707C15.1446 55.3039 14.5198 55.4208 13.92 55.296C13.3185 55.164 12.7911 54.8048 12.448 54.2933C12.1139 53.7776 11.997 53.1508 12.1227 52.5493V52.4747C12.2521 51.872 12.6119 51.3438 13.1253 51.0027L32.4107 38.336C32.9245 38.0022 33.5496 37.8853 34.1493 38.0107H34.1867C34.7729 38.1222 35.294 38.4543 35.6427 38.9387L42.272 48.2027L59.1627 37.1253L58.2933 35.9093C58.0948 35.6294 57.9731 35.3023 57.9405 34.9606C57.9079 34.619 57.9654 34.2747 58.1073 33.9623C58.2492 33.6498 58.4706 33.38 58.7494 33.1798C59.0282 32.9796 59.3546 32.856 59.696 32.8213Z" fill="#FAFAFA"/>
<path fill-rule="evenodd" clip-rule="evenodd" d="M35.856 34.6453H35.2373V36.0107H34.4693V32.2773H35.856C36.2166 32.2562 36.5738 32.3577 36.8693 32.5653C36.9898 32.6676 37.0847 32.7965 37.1467 32.9419C37.2088 33.0872 37.2361 33.245 37.2267 33.4027C37.2336 33.6264 37.1742 33.8472 37.056 34.0373C36.9321 34.2164 36.7602 34.3569 36.56 34.4427L37.3707 35.9627V36.0053H36.5493L35.856 34.6453ZM35.2373 34.016H35.8613C36.0242 34.0246 36.1842 33.9713 36.3093 33.8667C36.3637 33.8136 36.4061 33.7495 36.4337 33.6786C36.4613 33.6078 36.4735 33.5319 36.4693 33.456C36.4726 33.3811 36.4612 33.3063 36.4355 33.2358C36.4099 33.1653 36.3707 33.1006 36.32 33.0453C36.2585 32.9894 36.1858 32.9471 36.1067 32.9213C36.0276 32.8956 35.944 32.887 35.8613 32.896H35.2373V34.016Z" fill="#FAFAFA"/>
<path fill-rule="evenodd" clip-rule="evenodd" d="M39.968 35.664C40.1787 35.3676 40.2822 35.0084 40.2614 34.6453V34.608C40.2812 34.24 40.1821 33.8754 39.9787 33.568C39.8865 33.4443 39.7653 33.3451 39.6258 33.2791C39.4864 33.2131 39.3328 33.1823 39.1787 33.1893C39.0456 33.1864 38.9136 33.2136 38.7926 33.269C38.6716 33.3245 38.5647 33.4066 38.48 33.5093L38.4534 33.2373H37.7707V37.072H38.5067V35.76C38.5915 35.8566 38.6968 35.9331 38.8149 35.9838C38.933 36.0345 39.0609 36.0583 39.1894 36.0533C39.3412 36.058 39.4919 36.0249 39.6278 35.9569C39.7637 35.889 39.8806 35.7883 39.968 35.664ZM39.3867 33.9947C39.4904 34.1759 39.5386 34.3836 39.5254 34.592C39.5254 35.168 39.3494 35.456 38.9974 35.456C38.8985 35.4644 38.7995 35.4429 38.713 35.3945C38.6265 35.346 38.5565 35.2727 38.512 35.184V34.0533C38.5558 33.9656 38.625 33.8932 38.7107 33.8456C38.7964 33.798 38.8945 33.7775 38.992 33.7867C39.0701 33.7849 39.1473 33.8031 39.2164 33.8395C39.2854 33.8759 39.3441 33.9293 39.3867 33.9947Z" fill="#FAFAFA"/>
<path d="M9.11875 109V94.24H15.2188C15.6854 94.24 16.1588 94.3 16.6388 94.42C17.1188 94.5267 17.5588 94.7467 17.9588 95.08C18.3721 95.4133 18.6988 95.9067 18.9388 96.56C19.1921 97.2133 19.3188 98.0867 19.3188 99.18C19.3188 100.273 19.1921 101.153 18.9388 101.82C18.6854 102.487 18.3521 103 17.9388 103.36C17.5388 103.707 17.0988 103.947 16.6188 104.08C16.1521 104.2 15.6988 104.26 15.2588 104.26C15.0321 104.26 14.7454 104.253 14.3988 104.24C14.0654 104.213 13.7121 104.187 13.3388 104.16C12.9788 104.12 12.6388 104.087 12.3188 104.06C12.0121 104.02 11.7654 103.987 11.5788 103.96V109H9.11875ZM11.5788 102.02H14.8988C15.2854 102.02 15.6254 101.933 15.9188 101.76C16.2121 101.573 16.4388 101.28 16.5988 100.88C16.7588 100.467 16.8388 99.9067 16.8388 99.2C16.8388 98.5067 16.7521 97.96 16.5788 97.56C16.4188 97.16 16.1988 96.88 15.9188 96.72C15.6521 96.5467 15.3388 96.46 14.9788 96.46H11.5788V102.02ZM23.1834 109.12C22.3834 109.12 21.7301 108.88 21.2234 108.4C20.7168 107.92 20.4634 107.26 20.4634 106.42V105.52C20.4634 104.693 20.7434 104.02 21.3034 103.5C21.8768 102.98 22.7501 102.72 23.9234 102.72H26.9834V101.78C26.9834 101.407 26.9168 101.093 26.7834 100.84C26.6501 100.587 26.4101 100.4 26.0634 100.28C25.7168 100.147 25.1901 100.08 24.4834 100.08H21.2434V98.64C21.7368 98.5067 22.3168 98.3933 22.9834 98.3C23.6501 98.1933 24.4434 98.14 25.3634 98.14C26.2434 98.1267 26.9901 98.2333 27.6034 98.46C28.2168 98.6733 28.6768 99.0333 28.9834 99.54C29.3034 100.047 29.4634 100.74 29.4634 101.62V109H27.5234L27.1034 107.84C27.0101 107.92 26.8434 108.027 26.6034 108.16C26.3634 108.293 26.0634 108.44 25.7034 108.6C25.3434 108.747 24.9434 108.873 24.5034 108.98C24.0768 109.073 23.6368 109.12 23.1834 109.12ZM24.3834 107.38C24.5568 107.38 24.7501 107.36 24.9634 107.32C25.1901 107.267 25.4168 107.213 25.6434 107.16C25.8701 107.093 26.0768 107.033 26.2634 106.98C26.4634 106.913 26.6234 106.853 26.7434 106.8C26.8768 106.747 26.9568 106.713 26.9834 106.7V103.9L24.6634 104.02C24.0501 104.073 23.6034 104.233 23.3234 104.5C23.0568 104.767 22.9234 105.12 22.9234 105.56V106C22.9234 106.333 22.9901 106.607 23.1234 106.82C23.2701 107.02 23.4501 107.16 23.6634 107.24C23.8901 107.32 24.1301 107.367 24.3834 107.38ZM34.7805 113.74L36.0205 109C35.5005 109 35.0271 108.9 34.6005 108.7C34.1871 108.5 33.8338 108.2 33.5405 107.8C33.2471 107.4 33.0071 106.887 32.8205 106.26L30.6205 98.28H33.1805L35.1205 105.76C35.2138 106.067 35.3271 106.3 35.4605 106.46C35.5938 106.62 35.7271 106.74 35.8605 106.82C35.9938 106.887 36.1138 106.927 36.2205 106.94C36.3405 106.953 36.4205 106.96 36.4605 106.96L38.6805 98.28H41.2005L37.7605 111.76L36.8005 113.74H34.7805ZM42.4123 109V98.28H44.3323L44.8923 100C45.319 99.48 45.7923 99.04 46.3123 98.68C46.8323 98.32 47.4523 98.14 48.1723 98.14C48.319 98.14 48.4723 98.1533 48.6323 98.18C48.7923 98.1933 48.939 98.22 49.0723 98.26V100.78C48.8857 100.753 48.6857 100.733 48.4723 100.72C48.259 100.707 48.0523 100.7 47.8523 100.7C47.439 100.7 47.059 100.747 46.7123 100.84C46.379 100.933 46.0657 101.08 45.7723 101.28C45.479 101.467 45.1857 101.707 44.8923 102V109H42.4123ZM54.9312 109.1C54.0912 109.1 53.3646 109.013 52.7512 108.84C52.1379 108.667 51.6379 108.373 51.2512 107.96C50.8646 107.547 50.5779 106.987 50.3912 106.28C50.2046 105.573 50.1112 104.687 50.1112 103.62C50.1112 102.513 50.2046 101.607 50.3912 100.9C50.5779 100.18 50.8646 99.62 51.2512 99.22C51.6512 98.8067 52.1579 98.5267 52.7712 98.38C53.3846 98.22 54.1046 98.14 54.9312 98.14C55.7846 98.14 56.5179 98.2267 57.1313 98.4C57.7446 98.56 58.2446 98.84 58.6313 99.24C59.0179 99.64 59.3046 100.2 59.4913 100.92C59.6779 101.627 59.7713 102.527 59.7713 103.62C59.7713 104.7 59.6779 105.6 59.4913 106.32C59.3179 107.027 59.0379 107.587 58.6513 108C58.2646 108.4 57.7646 108.687 57.1513 108.86C56.5379 109.02 55.7979 109.1 54.9312 109.1ZM54.9312 107.12C55.3446 107.12 55.6979 107.087 55.9912 107.02C56.2846 106.94 56.5246 106.787 56.7113 106.56C56.9113 106.32 57.0579 105.967 57.1513 105.5C57.2446 105.02 57.2913 104.387 57.2913 103.6C57.2913 102.827 57.2446 102.207 57.1513 101.74C57.0579 101.273 56.9113 100.927 56.7113 100.7C56.5246 100.46 56.2846 100.307 55.9912 100.24C55.6979 100.16 55.3446 100.12 54.9312 100.12C54.5312 100.12 54.1846 100.16 53.8913 100.24C53.5979 100.307 53.3579 100.46 53.1713 100.7C52.9846 100.927 52.8379 101.273 52.7312 101.74C52.6379 102.207 52.5912 102.827 52.5912 103.6C52.5912 104.387 52.6379 105.02 52.7312 105.5C52.8379 105.967 52.9846 106.32 53.1713 106.56C53.3579 106.787 53.5979 106.94 53.8913 107.02C54.1846 107.087 54.5312 107.12 54.9312 107.12ZM64.8147 109.04C64.108 109.04 63.5147 108.92 63.0347 108.68C62.568 108.44 62.2147 108.067 61.9747 107.56C61.748 107.053 61.6347 106.38 61.6347 105.54V93.74H64.1147V105.2C64.1147 105.68 64.1614 106.053 64.2547 106.32C64.3614 106.587 64.508 106.78 64.6947 106.9C64.8814 107.007 65.108 107.08 65.3747 107.12L66.2747 107.24V109.04H64.8147ZM70.588 109.04C69.8813 109.04 69.288 108.92 68.808 108.68C68.3413 108.44 67.988 108.067 67.748 107.56C67.5213 107.053 67.408 106.38 67.408 105.54V93.74H69.888V105.2C69.888 105.68 69.9346 106.053 70.028 106.32C70.1346 106.587 70.2813 106.78 70.468 106.9C70.6546 107.007 70.8813 107.08 71.148 107.12L72.048 107.24V109.04H70.588Z" fill="#262626"/>
</svg>
