<svg width="80" height="116" viewBox="0 0 80 116" fill="none" xmlns="http://www.w3.org/2000/svg">
<path d="M40 80C62.0914 80 80 62.0914 80 40C80 17.9086 62.0914 0 40 0C17.9086 0 0 17.9086 0 40C0 62.0914 17.9086 80 40 80Z" fill="#0F4C81"/>
<path d="M41.6114 23.0846C39.4245 23.3004 37.3527 24.1674 35.6639 25.5733C35.5751 24.5086 35.2552 23.476 34.7265 22.5475C34.1978 21.619 33.473 20.817 32.6026 20.1973C35.218 18.2873 38.3211 17.1578 41.5523 16.9398C44.7835 16.7217 48.0103 17.424 50.8586 18.9653C51.5453 19.3689 52.0484 20.0234 52.2618 20.7908C52.4751 21.5582 52.3821 22.3785 52.0023 23.0786C51.6225 23.7788 50.9856 24.304 50.226 24.5436C49.4663 24.7831 48.6433 24.7183 47.9306 24.3627C45.9995 23.314 43.7982 22.8687 41.6114 23.0846Z" fill="#FAFAFA"/>
<path d="M32.9488 39.0293C33.9564 40.9771 35.5244 42.5783 37.4506 43.6267V43.648C38.1373 44.0516 38.6404 44.7061 38.8538 45.4735C39.0671 46.2409 38.9741 47.0612 38.5943 47.7613C38.2145 48.4614 37.5776 48.9867 36.818 49.2262C36.0583 49.4658 35.2353 49.4009 34.5226 49.0453C31.6745 47.496 29.3249 45.1697 27.7472 42.3372C26.1695 39.5047 25.4286 36.2825 25.6106 33.0453C26.6045 33.443 27.6735 33.618 28.7424 33.5581C29.8112 33.4982 30.854 33.2048 31.7973 32.6987C31.5401 34.8765 31.9411 37.0815 32.9488 39.0293Z" fill="#FAFAFA"/>
<path d="M28.0107 31.0667C30.7913 31.0667 33.0454 28.8126 33.0454 26.032C33.0454 23.2514 30.7913 20.9973 28.0107 20.9973C25.2301 20.9973 22.976 23.2514 22.976 26.032C22.976 28.8126 25.2301 31.0667 28.0107 31.0667Z" fill="#FAFAFA"/>
<path d="M47.0495 40.9738C48.0571 42.9205 48.4587 45.1243 48.2026 47.3013C49.1483 46.7963 50.1927 46.5037 51.263 46.4438C52.3334 46.384 53.4039 46.5583 54.4 46.9547C54.5771 43.7206 53.8327 40.5027 52.2532 37.6751C50.6737 34.8475 48.324 32.5263 45.4773 30.9813C44.7646 30.6257 43.9416 30.5609 43.1819 30.8004C42.4223 31.04 41.7854 31.5652 41.4056 32.2653C41.0258 32.9655 40.9328 33.7858 41.1461 34.5532C41.3595 35.3206 41.8626 35.9751 42.5493 36.3787C44.4746 37.4266 46.042 39.0271 47.0495 40.9738Z" fill="#FAFAFA"/>
<path d="M32.0906 55.6427C34.022 56.6913 36.2238 57.1361 38.4108 56.9193C40.5978 56.7025 42.6694 55.8341 44.3573 54.4267C44.4478 55.4941 44.7707 56.5288 45.3032 57.4584C45.8357 58.388 46.565 59.1899 47.4399 59.808C44.8246 61.718 41.7214 62.8475 38.4902 63.0656C35.259 63.2836 32.0322 62.5813 29.1839 61.04C28.4972 60.6364 27.9941 59.9819 27.7808 59.2145C27.5674 58.4471 27.6604 57.6268 28.0402 56.9267C28.4201 56.2265 29.0569 55.7013 29.8166 55.4618C30.5762 55.2222 31.3992 55.2871 32.1119 55.6427H32.0906Z" fill="#FAFAFA"/>
<path d="M57.024 53.9733C57.024 56.7539 54.7699 59.008 51.9893 59.008C49.2088 59.008 46.9547 56.7539 46.9547 53.9733C46.9547 51.1928 49.2088 48.9387 51.9893 48.9387C54.7699 48.9387 57.024 51.1928 57.024 53.9733Z" fill="#FAFAFA"/>
<path d="M20.2689 109V94.24H22.7289V100.62H28.9489V94.24H31.4289V109H28.9489V102.84H22.7289V109H20.2689ZM33.8547 109V94.24H39.8547C40.4014 94.24 40.9147 94.3067 41.3947 94.44C41.888 94.56 42.3214 94.7867 42.6947 95.12C43.0814 95.4533 43.3814 95.92 43.5947 96.52C43.8214 97.1067 43.9347 97.8733 43.9347 98.82C43.9347 99.5533 43.8614 100.167 43.7147 100.66C43.568 101.14 43.3747 101.533 43.1347 101.84C42.8947 102.147 42.6214 102.387 42.3147 102.56C42.0214 102.72 41.728 102.853 41.4347 102.96L44.2747 109H41.7747L39.2147 103.32C39.028 103.32 38.808 103.32 38.5547 103.32C38.3147 103.32 38.0614 103.32 37.7947 103.32C37.528 103.307 37.268 103.3 37.0147 103.3C36.7614 103.287 36.528 103.28 36.3147 103.28V109H33.8547ZM36.3147 101.34H39.4347C39.728 101.34 39.9947 101.307 40.2347 101.24C40.4747 101.16 40.688 101.027 40.8747 100.84C41.0614 100.653 41.2014 100.4 41.2947 100.08C41.4014 99.76 41.4547 99.3467 41.4547 98.84C41.4547 98.3467 41.4014 97.9467 41.2947 97.64C41.2014 97.32 41.0614 97.08 40.8747 96.92C40.688 96.7467 40.468 96.6267 40.2147 96.56C39.9747 96.4933 39.7147 96.46 39.4347 96.46H36.3147V101.34ZM45.917 109V94.24H48.377V109H45.917ZM55.1519 109.12C54.7919 109.12 54.4052 109.107 53.9919 109.08C53.5919 109.067 53.1785 109.04 52.7519 109C52.3385 108.947 51.9452 108.9 51.5719 108.86C51.1985 108.807 50.8652 108.747 50.5719 108.68V106.74C50.9452 106.767 51.3785 106.793 51.8719 106.82C52.3785 106.847 52.9052 106.867 53.4519 106.88C53.9985 106.893 54.5252 106.9 55.0319 106.9C55.5652 106.9 56.0385 106.853 56.4519 106.76C56.8652 106.653 57.1852 106.473 57.4119 106.22C57.6385 105.967 57.7519 105.607 57.7519 105.14V104.44C57.7519 103.92 57.6052 103.52 57.3119 103.24C57.0185 102.96 56.5852 102.82 56.0119 102.82H54.6319C53.2852 102.82 52.2452 102.527 51.5119 101.94C50.7919 101.353 50.4319 100.347 50.4319 98.92V98.16C50.4319 96.7333 50.8252 95.7067 51.6119 95.08C52.4119 94.44 53.5519 94.12 55.0319 94.12C55.5385 94.12 56.0585 94.1467 56.5919 94.2C57.1385 94.24 57.6585 94.2933 58.1519 94.36C58.6452 94.4267 59.0652 94.5 59.4119 94.58V96.52C58.8252 96.48 58.1519 96.44 57.3919 96.4C56.6452 96.36 55.9519 96.34 55.3119 96.34C54.8052 96.34 54.3585 96.3933 53.9719 96.5C53.5852 96.6067 53.2919 96.8 53.0919 97.08C52.8919 97.3467 52.7919 97.7467 52.7919 98.28V98.76C52.7919 99.3867 52.9585 99.8267 53.2919 100.08C53.6385 100.333 54.1319 100.46 54.7719 100.46H56.3119C57.1785 100.46 57.8919 100.62 58.4519 100.94C59.0119 101.26 59.4252 101.7 59.6919 102.26C59.9719 102.807 60.1119 103.433 60.1119 104.14V105.08C60.1119 106.173 59.8985 107.013 59.4719 107.6C59.0452 108.187 58.4585 108.587 57.7119 108.8C56.9652 109.013 56.1119 109.12 55.1519 109.12Z" fill="#262626"/>
</svg>
