<svg width="80" height="116" viewBox="0 0 80 116" fill="none" xmlns="http://www.w3.org/2000/svg">
<path d="M40 80C62.0914 80 80 62.0914 80 40C80 17.9086 62.0914 0 40 0C17.9086 0 0 17.9086 0 40C0 62.0914 17.9086 80 40 80Z" fill="#0F4C81"/>
<path d="M45.4826 24.1547C45.4826 27.1856 43.0256 29.6427 39.9946 29.6427C36.9637 29.6427 34.5066 27.1856 34.5066 24.1547C34.5066 21.1237 36.9637 18.6667 39.9946 18.6667C43.0256 18.6667 45.4826 21.1237 45.4826 24.1547Z" fill="#FAFAFA"/>
<path fill-rule="evenodd" clip-rule="evenodd" d="M48.889 32.7402C49.9378 32.2978 51.0645 32.0697 52.2027 32.0693C54.464 32.0722 56.6318 32.9725 58.2298 34.5725C59.8278 36.1725 60.7254 38.3413 60.7254 40.6027V52.8053C60.7276 54.2934 60.3407 55.7563 59.603 57.0487C58.8653 58.341 57.8025 59.418 56.52 60.1728C55.2374 60.9275 53.7799 61.3337 52.2919 61.3511C50.8039 61.3685 49.3372 60.9965 48.0374 60.272C49.146 59.0469 49.9661 57.589 50.4374 56.0053C50.9938 56.3094 51.6196 56.4637 52.2536 56.453C52.8876 56.4424 53.508 56.2671 54.0538 55.9444C54.5997 55.6218 55.0523 55.1628 55.3673 54.6125C55.6823 54.0622 55.8489 53.4394 55.8507 52.8053V40.608C55.8507 39.6377 55.4652 38.7071 54.7791 38.0209C54.093 37.3348 53.1624 36.9493 52.192 36.9493C51.2217 36.9493 50.2911 37.3348 49.605 38.0209C48.9188 38.7071 48.5334 39.6377 48.5334 40.608V52.8747C48.5183 54.9034 47.7808 56.8604 46.4534 58.3947C46.3414 58.5227 46.2294 58.6507 46.112 58.7733C45.3174 59.5853 44.3686 60.2304 43.3214 60.6708C42.2741 61.1112 41.1494 61.3381 40.0134 61.3381C38.8773 61.3381 37.7526 61.1112 36.7053 60.6708C35.6581 60.2304 34.7093 59.5853 33.9147 58.7733C32.7292 59.9857 31.2095 60.8174 29.5493 61.1624C27.8892 61.5073 26.1639 61.3498 24.5936 60.7101C23.0233 60.0703 21.6792 58.9772 20.7328 57.5702C19.7864 56.1633 19.2807 54.5063 19.28 52.8107V40.6133C19.2783 39.126 19.6653 37.664 20.4027 36.3724C21.1401 35.0807 22.2024 34.0043 23.4841 33.2497C24.7658 32.4951 26.2225 32.0886 27.7097 32.0706C29.1969 32.0525 30.663 32.4235 31.9627 33.1467C30.8288 34.3429 29.9793 35.7794 29.4774 37.3493C28.9196 37.0622 28.2974 36.9233 27.6705 36.946C27.0435 36.9686 26.433 37.1521 25.8974 37.4788C25.3618 37.8055 24.9193 38.2644 24.6122 38.8115C24.3052 39.3585 24.144 39.9753 24.144 40.6027V52.8053C24.144 53.7757 24.5295 54.7063 25.2156 55.3924C25.9018 56.0785 26.8324 56.464 27.8027 56.464C28.773 56.464 29.7036 56.0785 30.3898 55.3924C31.0759 54.7063 31.4614 53.7757 31.4614 52.8053V40.608C31.4615 40.4168 31.4454 40.2259 31.4134 40.0373C31.5697 38.0005 32.4515 36.0872 33.8987 34.6453C34.6933 33.8334 35.6421 33.1883 36.6893 32.7479C37.7366 32.3075 38.8613 32.0806 39.9974 32.0806C41.1334 32.0806 42.2581 32.3075 43.3054 32.7479C44.3526 33.1883 45.3014 33.8334 46.096 34.6453C46.8906 33.8304 47.8403 33.1826 48.889 32.7402ZM42.5978 55.3871C43.2839 54.7009 43.6694 53.7703 43.6694 52.8V40.6027C43.6694 39.6323 43.2839 38.7017 42.5978 38.0156C41.9116 37.3295 40.981 36.944 40.0107 36.944C39.0404 36.944 38.1098 37.3295 37.4236 38.0156C36.7375 38.7017 36.352 39.6323 36.352 40.6027V52.8C36.352 53.7703 36.7375 54.7009 37.4236 55.3871C38.1098 56.0732 39.0404 56.4587 40.0107 56.4587C40.981 56.4587 41.9116 56.0732 42.5978 55.3871Z" fill="#FAFAFA"/>
<path d="M27.7973 29.648C30.4925 29.648 32.6773 27.4632 32.6773 24.768C32.6773 22.0729 30.4925 19.888 27.7973 19.888C25.1022 19.888 22.9173 22.0729 22.9173 24.768C22.9173 27.4632 25.1022 29.648 27.7973 29.648Z" fill="#FAFAFA"/>
<path d="M57.0827 24.768C57.0827 27.4632 54.8978 29.648 52.2027 29.648C49.5075 29.648 47.3227 27.4632 47.3227 24.768C47.3227 22.0729 49.5075 19.888 52.2027 19.888C54.8978 19.888 57.0827 22.0729 57.0827 24.768Z" fill="#FAFAFA"/>
<path d="M21.7981 109V94.24H24.2581V100.62H30.4781V94.24H32.9581V109H30.4781V102.84H24.2581V109H21.7981ZM35.3839 109V94.24H41.3839C41.9306 94.24 42.4439 94.3067 42.9239 94.44C43.4172 94.56 43.8506 94.7867 44.2239 95.12C44.6106 95.4533 44.9106 95.92 45.1239 96.52C45.3506 97.1067 45.4639 97.8733 45.4639 98.82C45.4639 99.5533 45.3906 100.167 45.2439 100.66C45.0972 101.14 44.9039 101.533 44.6639 101.84C44.4239 102.147 44.1506 102.387 43.8439 102.56C43.5506 102.72 43.2572 102.853 42.9639 102.96L45.8039 109H43.3039L40.7439 103.32C40.5572 103.32 40.3372 103.32 40.0839 103.32C39.8439 103.32 39.5906 103.32 39.3239 103.32C39.0572 103.307 38.7972 103.3 38.5439 103.3C38.2906 103.287 38.0572 103.28 37.8439 103.28V109H35.3839ZM37.8439 101.34H40.9639C41.2572 101.34 41.5239 101.307 41.7639 101.24C42.0039 101.16 42.2172 101.027 42.4039 100.84C42.5906 100.653 42.7306 100.4 42.8239 100.08C42.9306 99.76 42.9839 99.3467 42.9839 98.84C42.9839 98.3467 42.9306 97.9467 42.8239 97.64C42.7306 97.32 42.5906 97.08 42.4039 96.92C42.2172 96.7467 41.9972 96.6267 41.7439 96.56C41.5039 96.4933 41.2439 96.46 40.9639 96.46H37.8439V101.34ZM47.4462 109V94.24H53.5463C54.5063 94.24 55.3063 94.4133 55.9463 94.76C56.5996 95.0933 57.1196 95.5867 57.5063 96.24C57.8929 96.88 58.1663 97.6533 58.3263 98.56C58.4996 99.4667 58.5863 100.487 58.5863 101.62C58.5863 103.247 58.3996 104.607 58.0263 105.7C57.6529 106.78 57.0929 107.6 56.3462 108.16C55.5996 108.72 54.6663 109 53.5463 109H47.4462ZM49.9062 106.78H53.3063C53.9863 106.78 54.5263 106.58 54.9263 106.18C55.3396 105.78 55.6396 105.193 55.8263 104.42C56.0263 103.647 56.1263 102.713 56.1263 101.62C56.1263 100.607 56.0663 99.7667 55.9463 99.1C55.8263 98.4333 55.6529 97.9067 55.4263 97.52C55.1996 97.1333 54.9063 96.86 54.5463 96.7C54.1996 96.54 53.7863 96.46 53.3063 96.46H49.9062V106.78Z" fill="#262626"/>
</svg>
