<svg width="80" height="116" viewBox="0 0 80 116" fill="none" xmlns="http://www.w3.org/2000/svg">
<path d="M27.072 23.3387C27.072 23.0204 27.1984 22.7152 27.4235 22.4901C27.6485 22.2651 27.9537 22.1387 28.272 22.1387C28.5825 22.1387 28.8806 22.259 29.1039 22.4739C29.1095 22.4792 29.115 22.4847 29.1205 22.4901C29.1363 22.5059 29.1516 22.5221 29.1664 22.5387C29.3627 22.7581 29.472 23.0427 29.472 23.3387" fill="#0F4C81"/>
<path d="M49.12 22.0373C49.0846 22.0373 49.0507 22.0233 49.0257 21.9983C49.0007 21.9733 48.9867 21.9394 48.9867 21.904V21.7013C48.9867 21.666 49.0007 21.6321 49.0257 21.6071C49.0507 21.5821 49.0846 21.568 49.12 21.568C49.1554 21.568 49.1893 21.5821 49.2143 21.6071C49.2393 21.6321 49.2533 21.666 49.2533 21.7013V21.9307C49.2471 21.9612 49.2303 21.9887 49.206 22.0081C49.1816 22.0276 49.1512 22.038 49.12 22.0373Z" fill="#0F4C81"/>
<path d="M50.3627 22.0373C50.3273 22.0373 50.2934 22.0233 50.2684 21.9983C50.2434 21.9733 50.2293 21.9394 50.2293 21.904V21.7013C50.2293 21.666 50.2434 21.6321 50.2684 21.6071C50.2934 21.5821 50.3273 21.568 50.3627 21.568C50.398 21.568 50.4319 21.5821 50.457 21.6071C50.482 21.6321 50.496 21.666 50.496 21.7013V21.9307C50.4898 21.9612 50.473 21.9887 50.4487 22.0081C50.4243 22.0276 50.3939 22.038 50.3627 22.0373Z" fill="#0F4C81"/>
<path d="M48.5333 22.4373V22.656V23.264V23.888C48.5333 23.9366 48.5522 23.9833 48.5861 24.0181C48.62 24.053 48.6661 24.0733 48.7147 24.0747H50.7467C50.7962 24.0747 50.8437 24.055 50.8787 24.02C50.9137 23.985 50.9333 23.9375 50.9333 23.888V22.4427L48.5333 22.4373ZM49.0667 23.8347C49.0654 23.8583 49.0554 23.8806 49.0387 23.8974C49.022 23.9141 48.9996 23.9241 48.976 23.9253H48.8C48.7764 23.9241 48.7541 23.9141 48.7373 23.8974C48.7206 23.8806 48.7106 23.8583 48.7093 23.8347V23.6587C48.7106 23.635 48.7206 23.6127 48.7373 23.596C48.7541 23.5792 48.7764 23.5693 48.8 23.568H48.976C48.9996 23.5693 49.022 23.5792 49.0387 23.596C49.0554 23.6127 49.0654 23.635 49.0667 23.6587V23.8347ZM49.0667 23.344C49.0667 23.368 49.0571 23.3911 49.0401 23.4081C49.0231 23.4251 49 23.4347 48.976 23.4347H48.8C48.776 23.4347 48.7529 23.4251 48.7359 23.4081C48.7189 23.3911 48.7093 23.368 48.7093 23.344V23.264V23.168C48.7107 23.1449 48.7208 23.1232 48.7377 23.1073C48.7546 23.0914 48.7769 23.0826 48.8 23.0827H48.976C48.9992 23.0826 49.0214 23.0914 49.0383 23.1073C49.0552 23.1232 49.0653 23.1449 49.0667 23.168V23.264V23.344ZM49.0667 22.8587C49.0654 22.8823 49.0554 22.9046 49.0387 22.9214C49.022 22.9381 48.9996 22.9481 48.976 22.9493H48.8C48.7764 22.9481 48.7541 22.9381 48.7373 22.9214C48.7206 22.9046 48.7106 22.8823 48.7093 22.8587V22.6827C48.7093 22.6782 48.7097 22.6738 48.7103 22.6695C48.711 22.6649 48.712 22.6604 48.7133 22.656C48.7177 22.642 48.7253 22.6291 48.7359 22.6186C48.7529 22.6016 48.776 22.592 48.8 22.592H48.976C49 22.592 49.0231 22.6016 49.0401 22.6186C49.0507 22.6291 49.0583 22.642 49.0627 22.656C49.0653 22.6646 49.0667 22.6735 49.0667 22.6827V22.8587ZM49.6 23.8347C49.6 23.8578 49.5912 23.8801 49.5754 23.897C49.5595 23.9138 49.5378 23.924 49.5147 23.9253H49.3333C49.3102 23.924 49.2885 23.9138 49.2726 23.897C49.2568 23.8801 49.248 23.8578 49.248 23.8347V23.6587C49.248 23.6355 49.2568 23.6132 49.2726 23.5964C49.2885 23.5795 49.3102 23.5694 49.3333 23.568H49.5147C49.5378 23.5694 49.5595 23.5795 49.5754 23.5964C49.5912 23.6132 49.6 23.6355 49.6 23.6587V23.8347ZM49.6 23.344C49.6007 23.3556 49.5991 23.3673 49.5951 23.3783C49.5911 23.3893 49.585 23.3993 49.577 23.4078C49.569 23.4163 49.5593 23.4231 49.5486 23.4277C49.5379 23.4323 49.5263 23.4347 49.5147 23.4347H49.3333C49.3217 23.4347 49.3101 23.4323 49.2994 23.4277C49.2887 23.4231 49.279 23.4163 49.271 23.4078C49.263 23.3993 49.2569 23.3893 49.2529 23.3783C49.2489 23.3673 49.2473 23.3556 49.248 23.344V23.264V23.168C49.248 23.1454 49.257 23.1237 49.273 23.1077C49.289 23.0917 49.3107 23.0827 49.3333 23.0827H49.4559H49.5147C49.5373 23.0827 49.559 23.0917 49.575 23.1077C49.591 23.1237 49.6 23.1454 49.6 23.168V23.344ZM49.6 22.8587C49.6 22.8818 49.5912 22.9041 49.5754 22.921C49.5595 22.9378 49.5378 22.948 49.5147 22.9493H49.4559H49.3333C49.3102 22.948 49.2885 22.9378 49.2726 22.921C49.2568 22.9041 49.248 22.8818 49.248 22.8587V22.6827C49.2474 22.6737 49.2483 22.6647 49.2505 22.656C49.2512 22.6534 49.252 22.6509 49.2529 22.6484C49.2569 22.6374 49.263 22.6273 49.271 22.6189C49.279 22.6104 49.2887 22.6036 49.2994 22.599C49.3101 22.5944 49.3217 22.592 49.3333 22.592H49.5147C49.5263 22.592 49.5379 22.5944 49.5486 22.599C49.5593 22.6036 49.569 22.6104 49.577 22.6189C49.585 22.6273 49.5911 22.6374 49.5951 22.6484C49.5991 22.6593 49.6007 22.671 49.6 22.6827V22.8587ZM50.0907 23.8347C50.0907 23.8587 50.0811 23.8818 50.0641 23.8988C50.0471 23.9158 50.0241 23.9253 50 23.9253H49.824C49.8004 23.9241 49.778 23.9141 49.7613 23.8974C49.7446 23.8806 49.7346 23.8583 49.7333 23.8347V23.6587C49.7346 23.635 49.7446 23.6127 49.7613 23.596C49.778 23.5792 49.8004 23.5693 49.824 23.568H50C50.0241 23.568 50.0471 23.5776 50.0641 23.5946C50.0811 23.6116 50.0907 23.6346 50.0907 23.6587V23.8347ZM50.0907 23.344C50.0914 23.3561 50.0896 23.3683 50.0854 23.3796C50.0811 23.391 50.0744 23.4013 50.0659 23.4099C50.0573 23.4184 50.047 23.4251 50.0356 23.4294C50.0243 23.4336 50.0121 23.4355 50 23.4347H49.824C49.8 23.4347 49.7769 23.4251 49.7599 23.4081C49.7429 23.3911 49.7333 23.368 49.7333 23.344V23.168C49.7347 23.1449 49.7448 23.1232 49.7617 23.1073C49.7786 23.0914 49.8008 23.0826 49.824 23.0827H50C50.0117 23.0819 50.0233 23.0836 50.0343 23.0876C50.0453 23.0915 50.0553 23.0977 50.0638 23.1057C50.0723 23.1137 50.0791 23.1234 50.0837 23.1341C50.0883 23.1448 50.0907 23.1563 50.0907 23.168V23.344ZM50.0907 22.8587C50.0907 22.8827 50.0811 22.9058 50.0641 22.9228C50.0471 22.9398 50.0241 22.9493 50 22.9493H49.824C49.8004 22.9481 49.778 22.9381 49.7613 22.9214C49.7446 22.9046 49.7346 22.8823 49.7333 22.8587V22.6827C49.7333 22.6586 49.7429 22.6356 49.7599 22.6186C49.7769 22.6016 49.8 22.592 49.824 22.592H50C50.0121 22.5912 50.0243 22.593 50.0356 22.5973C50.047 22.6016 50.0573 22.6082 50.0659 22.6168C50.0744 22.6254 50.0811 22.6357 50.0854 22.6471C50.0896 22.6584 50.0914 22.6706 50.0907 22.6827V22.8587ZM50.5707 23.072V23.8027C50.5797 23.8072 50.5874 23.8141 50.593 23.8225C50.5986 23.8309 50.6019 23.8406 50.6027 23.8507C50.602 23.8598 50.5995 23.8687 50.5954 23.8768C50.5913 23.885 50.5856 23.8923 50.5786 23.8982C50.5717 23.9041 50.5637 23.9087 50.555 23.9115C50.5463 23.9143 50.5371 23.9154 50.528 23.9147C50.509 23.9162 50.4902 23.9104 50.4753 23.8986C50.4604 23.8867 50.4507 23.8695 50.448 23.8507C50.4496 23.8408 50.4533 23.8315 50.4588 23.8232C50.4643 23.8149 50.4715 23.8079 50.48 23.8027V23.072C50.4163 23.0656 50.3578 23.0342 50.3173 22.9847C50.2768 22.9352 50.2576 22.8717 50.264 22.808C50.2704 22.7443 50.3018 22.6858 50.3513 22.6453C50.4008 22.6048 50.4644 22.5856 50.528 22.592C50.5917 22.592 50.6527 22.6173 50.6977 22.6623C50.7427 22.7073 50.768 22.7684 50.768 22.832C50.7682 22.8921 50.7459 22.9501 50.7054 22.9946C50.6649 23.039 50.6092 23.0667 50.5493 23.072H50.5707Z" fill="#0F4C81"/>
<path d="M50.944 22.3573V22.0427C50.944 21.9927 50.9245 21.9446 50.8897 21.9088C50.8548 21.8729 50.8073 21.8521 50.7573 21.8507H50.5867V21.904C50.5867 21.9634 50.5631 22.0204 50.5211 22.0624C50.4791 22.1044 50.4221 22.128 50.3627 22.128C50.3335 22.128 50.3046 22.1222 50.2777 22.1109C50.2509 22.0995 50.2265 22.083 50.2061 22.0621C50.1857 22.0412 50.1698 22.0165 50.1591 21.9893C50.1484 21.9622 50.1433 21.9332 50.144 21.904V21.8507H49.344V21.904C49.344 21.9634 49.3204 22.0204 49.2784 22.0624C49.2364 22.1044 49.1794 22.128 49.12 22.128C49.0606 22.128 49.0036 22.1044 48.9616 22.0624C48.9196 22.0204 48.896 21.9634 48.896 21.904V21.8507H48.7253C48.7008 21.8514 48.6767 21.8569 48.6543 21.8669C48.6319 21.8769 48.6117 21.8913 48.5949 21.9091C48.578 21.9269 48.5649 21.9479 48.5561 21.9708C48.5474 21.9937 48.5433 22.0182 48.544 22.0427V22.3467L50.944 22.3573Z" fill="#0F4C81"/>
<path d="M35.0293 33.232C34.6997 33.232 34.3836 33.1011 34.1506 32.868C33.9175 32.635 33.7866 32.3189 33.7866 31.9893V27.2907H39.8879V33.232H35.0293Z" fill="#0F4C81"/>
<path fill-rule="evenodd" clip-rule="evenodd" d="M80 40C80 62.0914 62.0914 80 40 80C17.9086 80 0 62.0914 0 40C0 17.9086 17.9086 0 40 0C62.0914 0 80 17.9086 80 40ZM45.7066 30.0373H43.8026C42.9795 30.0354 42.1849 30.3385 41.5723 30.8881C40.9596 31.4377 40.5723 32.1949 40.4853 33.0133V43.4773C41.1432 43.5549 41.7467 43.8809 42.1721 44.3887C42.5976 44.8965 42.813 45.5477 42.7741 46.2091C42.7353 46.8704 42.4452 47.492 41.9632 47.9465C41.4812 48.401 40.8438 48.6542 40.1813 48.6542C39.5188 48.6542 38.8813 48.401 38.3993 47.9465C37.9173 47.492 37.6273 46.8704 37.5884 46.2091C37.5496 45.5477 37.7649 44.8965 38.1904 44.3887C38.6159 43.8809 39.2193 43.5549 39.8773 43.4773V41.04H30.2773C29.9053 41.04 29.5485 40.8922 29.2854 40.6292C29.0224 40.3661 28.8746 40.0093 28.8746 39.6373V37.84H26.8329C26.6804 39.3674 25.3915 40.56 23.824 40.56C22.1539 40.56 20.8 39.2061 20.8 37.536C20.8 35.8659 22.1539 34.512 23.824 34.512C25.3933 34.512 26.6834 35.7074 26.8334 37.2373H28.8746V35.3621C27.3117 35.2449 26.08 33.9396 26.08 32.3467C26.08 30.6766 27.4339 29.3227 29.104 29.3227C30.7741 29.3227 32.128 30.6766 32.128 32.3467C32.128 33.8904 30.9713 35.164 29.4773 35.3479V37.2373H38.3999C38.6733 37.2367 38.944 37.2901 39.1966 37.3945C39.4492 37.4988 39.6787 37.652 39.8719 37.8453V33.84H35.0293C34.5394 33.8386 34.07 33.643 33.7241 33.2961C33.3782 32.9492 33.1839 32.4792 33.1839 31.9893V23.7813C33.1839 23.4518 33.053 23.1357 32.82 22.9026C32.5869 22.6696 32.2709 22.5387 31.9413 22.5387H31.2825C31.1374 24.0737 29.845 25.2747 28.272 25.2747C26.6019 25.2747 25.248 23.9208 25.248 22.2507C25.248 20.5806 26.6019 19.2267 28.272 19.2267C29.8359 19.2267 31.1224 20.4138 31.2798 21.936H31.9413C32.4307 21.936 32.9001 22.1304 33.2461 22.4765C33.5922 22.8226 33.7866 23.2919 33.7866 23.7813V26.6827H39.8879V25.1573C39.8908 24.4939 40.1559 23.8585 40.6256 23.3899C41.0952 22.9212 41.7312 22.6574 42.3946 22.656H43.7813V20.0649C42.2259 19.9399 41.0027 18.6382 41.0027 17.0507C41.0027 15.3806 42.3566 14.0267 44.0267 14.0267C45.6968 14.0267 47.0507 15.3806 47.0507 17.0507C47.0507 18.5981 45.8884 19.874 44.3893 20.0532V22.656H46.7236C46.8015 21.0553 48.124 19.7813 49.744 19.7813C51.4141 19.7813 52.768 21.1352 52.768 22.8053C52.768 24.4754 51.4141 25.8293 49.744 25.8293C48.2298 25.8293 46.9756 24.7164 46.7546 23.264H44.3893V24.784C44.3879 25.4484 44.1233 26.0851 43.6535 26.5549C43.1837 27.0247 42.547 27.2893 41.8826 27.2907H40.4959V31.248C40.8492 30.6908 41.3376 30.2319 41.9157 29.9139C42.4938 29.596 43.1428 29.4293 43.8026 29.4293H50.7458C50.8982 27.902 52.1872 26.7093 53.7547 26.7093C55.4248 26.7093 56.7787 28.0632 56.7787 29.7333C56.7787 31.4034 55.4248 32.7573 53.7547 32.7573C52.1872 32.7573 50.8982 31.5647 50.7458 30.0373H46.3146V36.2507C46.3146 36.4776 46.3593 36.7023 46.4461 36.9119C46.533 37.1216 46.6603 37.3121 46.8207 37.4726C46.9812 37.633 47.1717 37.7603 47.3813 37.8471C47.591 37.934 47.8157 37.9787 48.0426 37.9787H50.7757C51.0233 36.5577 52.2628 35.4773 53.7547 35.4773C55.4248 35.4773 56.7787 36.8312 56.7787 38.5013C56.7787 40.1714 55.4248 41.5253 53.7547 41.5253C52.1131 41.5253 50.777 40.2173 50.7318 38.5867H48.0426C47.4235 38.5853 46.8302 38.3387 46.3924 37.9009C45.9546 37.4631 45.708 36.8698 45.7066 36.2507V30.0373ZM58.6081 56.0853C58.2159 55.2885 57.5885 54.6314 56.8107 54.2027C55.8623 53.7088 54.8019 53.4699 53.7334 53.5093H51.5147C50.7649 53.5643 50.0171 53.3774 49.3814 52.976C49.1177 52.7402 48.9139 52.445 48.7868 52.1149C48.6598 51.7847 48.6131 51.4291 48.6507 51.0773V50.384C48.6084 49.7735 48.7596 49.1651 49.0827 48.6453C49.3968 48.2341 49.8433 47.9439 50.3467 47.824C50.977 47.661 51.6264 47.5839 52.2774 47.5947C53.1947 47.5947 54.1974 47.6213 55.2854 47.68C56.3734 47.7387 57.3334 47.792 58.1761 47.8507V45.0613C57.6801 44.944 57.072 44.8373 56.3627 44.7413C55.6534 44.6453 54.9121 44.5653 54.1334 44.496C53.3547 44.4267 52.6027 44.4 51.872 44.4C49.7387 44.4 48.1032 44.8551 46.9654 45.7653C45.8276 46.6756 45.2569 48.1582 45.2534 50.2133V51.3067C45.2534 53.36 45.7867 54.8053 46.8214 55.6533C47.856 56.5013 49.3601 56.9173 51.296 56.9173H53.2854C53.9632 56.868 54.6333 57.0863 55.1521 57.5253C55.3732 57.7516 55.5441 58.022 55.6535 58.3188C55.7629 58.6157 55.8083 58.9324 55.7867 59.248V60.256C55.8244 60.8183 55.6492 61.3742 55.296 61.8133C54.925 62.2035 54.4426 62.4698 53.9147 62.576C53.2446 62.7275 52.559 62.7991 51.872 62.7893C51.1416 62.7893 50.3838 62.7893 49.6001 62.7627C49.4389 62.7572 49.2788 62.7519 49.1199 62.7467C48.5062 62.7266 47.9107 62.707 47.3387 62.6773C46.6187 62.64 45.9894 62.5973 45.456 62.56V65.3547C45.9315 65.4598 46.4122 65.5399 46.896 65.5947C47.4294 65.664 48.0001 65.7333 48.6081 65.7973C49.216 65.8613 49.808 65.9147 50.3894 65.9413C50.9707 65.968 51.5254 65.984 52.048 65.984C53.29 66.001 54.5283 65.8467 55.7281 65.5253C56.7454 65.2562 57.6396 64.6463 58.2614 63.7973C58.8729 62.9547 59.1805 61.7458 59.1841 60.1707V58.816C59.2068 57.8734 59.0096 56.9385 58.6081 56.0853ZM26.0693 44.576C27.4204 44.5796 28.6293 44.5991 29.696 44.6347L32.6186 44.7307C33.5093 44.7733 34.3413 44.8213 35.1093 44.8747V47.84H27.1093C26.5527 47.8084 26.0039 47.9831 25.568 48.3307C25.3685 48.5283 25.2149 48.7674 25.1181 49.031C25.0213 49.2946 24.9837 49.5762 25.008 49.856V53.6267L33.84 53.8293V56.6187L25.008 56.8213V60.4747C24.9788 60.9368 25.0824 61.3976 25.3066 61.8027C25.4901 62.0922 25.7637 62.3133 26.0853 62.432C26.4027 62.5498 26.7387 62.6094 27.0773 62.608H35.1786V65.5947C34.336 65.6693 33.4133 65.7333 32.416 65.7813C31.4186 65.8293 30.4106 65.8613 29.3813 65.8933C29.1456 65.9007 28.9124 65.9086 28.6816 65.9164L28.6795 65.9164C27.9034 65.9427 27.155 65.968 26.432 65.968C25.9157 65.9637 25.4005 65.9209 24.8906 65.84C24.3176 65.7496 23.7662 65.5543 23.264 65.264C22.7263 64.9423 22.2873 64.4793 21.9946 63.9253C21.6347 63.1614 21.468 62.3208 21.5093 61.4773V49.2107C21.4857 48.4374 21.6219 47.6676 21.9093 46.9493C22.1407 46.3932 22.5074 45.9038 22.976 45.5253C23.4191 45.1819 23.927 44.9315 24.4693 44.7893C24.9915 44.651 25.5291 44.5793 26.0693 44.576ZM39.2533 50.3733H41.0933C41.5705 50.3733 41.9573 50.7602 41.9573 51.2373V64.9387C41.9573 65.4158 41.5705 65.8027 41.0933 65.8027H39.2533C38.7762 65.8027 38.3893 65.4158 38.3893 64.9387V51.2373C38.3893 50.7602 38.7762 50.3733 39.2533 50.3733Z" fill="#0F4C81"/>
<path d="M30.2773 40.4373C30.0651 40.4373 29.8616 40.3531 29.7116 40.203C29.5616 40.053 29.4773 39.8495 29.4773 39.6373V37.84H38.3999C38.7673 37.8421 39.1208 37.98 39.3926 38.2271C39.6643 38.4743 39.8351 38.8132 39.8719 39.1787V40.4373H30.2773Z" fill="#0F4C81"/>
<path d="M40.4959 25.1573C40.4959 24.9083 40.5451 24.6616 40.6406 24.4316C40.7361 24.2015 40.876 23.9925 41.0524 23.8167C41.2288 23.6408 41.4381 23.5014 41.6684 23.4066C41.8988 23.3118 42.1455 23.2633 42.3946 23.264H43.7813V24.784C43.7813 25.2876 43.5812 25.7705 43.2252 26.1266C42.8691 26.4826 42.3862 26.6827 41.8826 26.6827H40.4959V25.1573Z" fill="#0F4C81"/>
<path d="M28.8693 21.3493C28.8693 21.6792 28.6019 21.9467 28.272 21.9467C27.9421 21.9467 27.6747 21.6792 27.6747 21.3493C27.6747 21.0194 27.9421 20.752 28.272 20.752C28.6019 20.752 28.8693 21.0194 28.8693 21.3493Z" fill="#0F4C81"/>
<path d="M43.792 17.5733C43.7759 17.5736 43.76 17.5704 43.7453 17.564C43.7305 17.5575 43.7174 17.548 43.7067 17.536L43.3707 17.2C43.3543 17.1764 43.3468 17.1478 43.3494 17.1192C43.352 17.0906 43.3645 17.0638 43.3848 17.0435C43.4051 17.0232 43.4319 17.0106 43.4605 17.008C43.4891 17.0055 43.5177 17.013 43.5413 17.0293L43.792 17.2853L44.512 16.5653C44.5225 16.5539 44.5353 16.5447 44.5495 16.5384C44.5637 16.5321 44.5791 16.5289 44.5947 16.5289C44.6102 16.5289 44.6256 16.5321 44.6398 16.5384C44.6541 16.5447 44.6668 16.5539 44.6773 16.5653C44.689 16.5763 44.6982 16.5895 44.7045 16.6042C44.7109 16.6189 44.7141 16.6347 44.7141 16.6507C44.7141 16.6666 44.7109 16.6825 44.7045 16.6971C44.6982 16.7118 44.689 16.725 44.6773 16.736L43.8773 17.536C43.8669 17.5483 43.8537 17.558 43.839 17.5645C43.8242 17.5709 43.8081 17.574 43.792 17.5733Z" fill="#0F4C81"/>
<path d="M29.104 31.5467C28.4899 31.6055 27.9196 31.8907 27.504 32.3467C27.6896 32.596 27.931 32.7985 28.2088 32.9381C28.4179 33.0431 28.6433 33.1102 28.8746 33.137V32.9556C28.8284 32.9381 28.784 32.9154 28.7425 32.8877C28.6355 32.8162 28.5521 32.7146 28.5029 32.5957C28.4536 32.4768 28.4407 32.3459 28.4658 32.2197C28.4909 32.0935 28.5529 31.9776 28.6439 31.8866C28.7349 31.7956 28.8508 31.7336 28.9771 31.7085C29.1033 31.6834 29.2341 31.6963 29.353 31.7455C29.4719 31.7948 29.5735 31.8782 29.645 31.9852C29.7165 32.0922 29.7547 32.218 29.7547 32.3467C29.7547 32.5192 29.6861 32.6847 29.5641 32.8068C29.5145 32.8563 29.4578 32.8971 29.3963 32.928H29.4773V33.115C29.658 33.0806 29.8337 33.0212 29.9992 32.9381C30.277 32.7985 30.5184 32.596 30.704 32.3467C30.2881 31.8911 29.718 31.606 29.104 31.5467Z" fill="#0F4C81"/>
<path fill-rule="evenodd" clip-rule="evenodd" d="M29.104 31.7973C28.9985 31.7973 28.8954 31.8286 28.8077 31.8872C28.72 31.9458 28.6516 32.0291 28.6113 32.1266C28.5709 32.224 28.5603 32.3313 28.5809 32.4347C28.6015 32.5382 28.6523 32.6332 28.7269 32.7078C28.8015 32.7824 28.8965 32.8332 29 32.8538C29.1034 32.8743 29.2106 32.8638 29.3081 32.8234C29.4056 32.783 29.4889 32.7147 29.5475 32.627C29.6061 32.5393 29.6373 32.4361 29.6373 32.3307C29.6373 32.1892 29.5811 32.0536 29.4811 31.9536C29.3811 31.8535 29.2455 31.7973 29.104 31.7973ZM28.7646 32.6861C28.8546 32.7761 28.9767 32.8267 29.104 32.8267C29.2313 32.8267 29.3534 32.7761 29.4434 32.6861C29.5334 32.5961 29.584 32.474 29.584 32.3467C29.584 32.2194 29.5334 32.0973 29.4434 32.0073C29.3534 31.9172 29.2313 31.8667 29.104 31.8667C28.9767 31.8667 28.8546 31.9172 28.7646 32.0073C28.6746 32.0973 28.624 32.2194 28.624 32.3467C28.624 32.474 28.6746 32.5961 28.7646 32.6861Z" fill="#0F4C81"/>
<path d="M29.104 32.1493C29.104 32.2377 29.0324 32.3093 28.944 32.3093C28.8556 32.3093 28.784 32.2377 28.784 32.1493C28.784 32.061 28.8556 31.9893 28.944 31.9893C29.0324 31.9893 29.104 32.061 29.104 32.1493Z" fill="#0F4C81"/>
<path d="M29.4773 32.928H29.3963C29.3064 32.9732 29.2065 32.9973 29.104 32.9973C29.0252 32.9973 28.9476 32.983 28.8746 32.9556V33.137C28.9506 33.1458 29.0272 33.1502 29.104 33.1502C29.2297 33.1502 29.3546 33.1384 29.4773 33.115V32.928Z" fill="#0F4C81"/>
<path fill-rule="evenodd" clip-rule="evenodd" d="M24.816 35.9307H22.832C22.8049 35.9299 22.778 35.9347 22.7528 35.9445C22.7276 35.9544 22.7046 35.9692 22.6852 35.9881C22.6658 36.007 22.6504 36.0296 22.6399 36.0545C22.6294 36.0795 22.624 36.1063 22.624 36.1333V38.9387C22.6233 38.9662 22.6281 38.9936 22.6383 39.0191C22.6485 39.0447 22.6638 39.0679 22.6833 39.0874C22.7027 39.1068 22.726 39.1221 22.7515 39.1323C22.7771 39.1425 22.8045 39.1474 22.832 39.1467H24.816C24.8712 39.1467 24.9241 39.1247 24.9631 39.0857C25.0021 39.0467 25.024 38.9938 25.024 38.9387V36.1333C25.0226 36.0791 25.0001 36.0275 24.9612 35.9897C24.9224 35.9518 24.8703 35.9306 24.816 35.9307ZM23.328 36.2987H22.9333C22.9022 36.2987 22.8724 36.311 22.8504 36.333C22.8284 36.355 22.816 36.3849 22.816 36.416C22.8153 36.4318 22.8178 36.4477 22.8234 36.4625C22.8289 36.4774 22.8375 36.491 22.8484 36.5024C22.8594 36.5139 22.8726 36.523 22.8872 36.5293C22.9018 36.5355 22.9175 36.5387 22.9333 36.5387H23.328C23.3439 36.5387 23.3596 36.5355 23.3742 36.5293C23.3888 36.523 23.4019 36.5139 23.4129 36.5024C23.4239 36.491 23.4324 36.4774 23.438 36.4625C23.4436 36.4477 23.4461 36.4318 23.4453 36.416C23.4453 36.3849 23.433 36.355 23.411 36.333C23.389 36.311 23.3591 36.2987 23.328 36.2987ZM23.984 37.216H22.9333C22.9162 37.2136 22.8987 37.215 22.8822 37.2202C22.8656 37.2254 22.8505 37.2341 22.8377 37.2459C22.825 37.2576 22.815 37.272 22.8085 37.288C22.8019 37.3041 22.799 37.3214 22.8 37.3387C22.8 37.3698 22.8124 37.3996 22.8344 37.4216C22.8564 37.4436 22.8862 37.456 22.9173 37.456H23.984C24.0151 37.456 24.045 37.4436 24.067 37.4216C24.089 37.3996 24.1013 37.3698 24.1013 37.3387C24.1021 37.3228 24.0996 37.307 24.094 37.2921C24.0884 37.2773 24.0799 37.2637 24.0689 37.2522C24.0579 37.2408 24.0448 37.2316 24.0302 37.2254C24.0156 37.2192 23.9999 37.216 23.984 37.216ZM24.3147 38.7787H24.7253C24.7432 38.7825 24.7617 38.7822 24.7795 38.7779C24.7972 38.7737 24.8138 38.7655 24.828 38.754C24.8422 38.7425 24.8536 38.7279 24.8615 38.7115C24.8694 38.695 24.8734 38.6769 24.8734 38.6587C24.8734 38.6404 24.8694 38.6224 24.8615 38.6059C24.8536 38.5894 24.8422 38.5749 24.828 38.5634C24.8138 38.5519 24.7972 38.5437 24.7795 38.5394C24.7617 38.5351 24.7432 38.5349 24.7253 38.5387H24.3147C24.2835 38.5387 24.2537 38.551 24.2317 38.573C24.2097 38.595 24.1973 38.6249 24.1973 38.656C24.1966 38.6718 24.1991 38.6877 24.2047 38.7025C24.2103 38.7174 24.2188 38.731 24.2298 38.7424C24.2407 38.7539 24.2539 38.763 24.2685 38.7693C24.2831 38.7755 24.2988 38.7787 24.3147 38.7787ZM22.8504 37.8216C22.8724 37.8436 22.9022 37.856 22.9333 37.856H24.7413C24.7592 37.8598 24.7777 37.8595 24.7955 37.8553C24.8132 37.851 24.8298 37.8428 24.844 37.8313C24.8582 37.8198 24.8696 37.8053 24.8775 37.7888C24.8854 37.7723 24.8894 37.7543 24.8894 37.736C24.8894 37.7177 24.8854 37.6997 24.8775 37.6832C24.8696 37.6667 24.8582 37.6522 24.844 37.6407C24.8298 37.6292 24.8132 37.621 24.7955 37.6167C24.7777 37.6125 24.7592 37.6122 24.7413 37.616H22.9333C22.9175 37.616 22.9018 37.6192 22.8872 37.6254C22.8726 37.6316 22.8594 37.6408 22.8484 37.6522C22.8375 37.6637 22.8289 37.6773 22.8234 37.6921C22.8178 37.707 22.8153 37.7228 22.816 37.7387C22.816 37.7698 22.8284 37.7996 22.8504 37.8216ZM24.3147 37.456H24.7253C24.7432 37.4598 24.7617 37.4595 24.7795 37.4553C24.7972 37.451 24.8138 37.4428 24.828 37.4313C24.8422 37.4198 24.8536 37.4053 24.8615 37.3888C24.8694 37.3723 24.8734 37.3543 24.8734 37.336C24.8734 37.3177 24.8694 37.2997 24.8615 37.2832C24.8536 37.2667 24.8422 37.2522 24.828 37.2407C24.8138 37.2292 24.7972 37.221 24.7795 37.2167C24.7617 37.2125 24.7432 37.2122 24.7253 37.216H24.3147C24.2988 37.216 24.2831 37.2192 24.2685 37.2254C24.2539 37.2316 24.2407 37.2408 24.2298 37.2522C24.2188 37.2637 24.2103 37.2773 24.2047 37.2921C24.1991 37.307 24.1966 37.3228 24.1973 37.3387C24.1973 37.3698 24.2097 37.3996 24.2317 37.4216C24.2537 37.4436 24.2835 37.456 24.3147 37.456ZM23.6587 36.5387H24.7253C24.7432 36.5425 24.7617 36.5422 24.7795 36.5379C24.7972 36.5337 24.8138 36.5255 24.828 36.514C24.8422 36.5025 24.8536 36.4879 24.8615 36.4715C24.8694 36.455 24.8734 36.4369 24.8734 36.4187C24.8734 36.4004 24.8694 36.3824 24.8615 36.3659C24.8536 36.3494 24.8422 36.3349 24.828 36.3234C24.8138 36.3119 24.7972 36.3037 24.7795 36.2994C24.7617 36.2951 24.7432 36.2949 24.7253 36.2987H23.6587C23.6408 36.2949 23.6223 36.2951 23.6045 36.2994C23.5868 36.3037 23.5702 36.3119 23.556 36.3234C23.5418 36.3349 23.5304 36.3494 23.5225 36.3659C23.5146 36.3824 23.5106 36.4004 23.5106 36.4187C23.5106 36.4369 23.5146 36.455 23.5225 36.4715C23.5304 36.4879 23.5418 36.5025 23.556 36.514C23.5702 36.5255 23.5868 36.5337 23.6045 36.5379C23.6223 36.5422 23.6408 36.5425 23.6587 36.5387Z" fill="#0F4C81"/>
<path fill-rule="evenodd" clip-rule="evenodd" d="M54.4587 28.1333H53.056C52.9768 28.1333 52.9008 28.1648 52.8448 28.2208C52.7888 28.2768 52.7573 28.3528 52.7573 28.432V29.4293H52.9547V28.4533H54.5547V29.4293H54.7573V28.432C54.7573 28.3528 54.7259 28.2768 54.6699 28.2208C54.6138 28.1648 54.5379 28.1333 54.4587 28.1333ZM53.9893 28.2507H53.52C53.5063 28.2519 53.4934 28.2579 53.4836 28.2676C53.4739 28.2774 53.4679 28.2903 53.4667 28.304C53.4667 28.3181 53.4723 28.3317 53.4823 28.3417C53.4923 28.3517 53.5059 28.3573 53.52 28.3573H53.9893C53.9968 28.3581 54.0043 28.3573 54.0114 28.3549C54.0185 28.3526 54.025 28.3488 54.0305 28.3437C54.0361 28.3387 54.0405 28.3326 54.0435 28.3257C54.0465 28.3189 54.048 28.3115 54.048 28.304C54.0467 28.2894 54.0399 28.2758 54.029 28.2659C54.0182 28.2561 54.004 28.2506 53.9893 28.2507Z" fill="#0F4C81"/>
<path d="M52.7573 29.4293V30.0373H52.9547V29.4293H52.7573Z" fill="#0F4C81"/>
<path d="M42.727 17.5912C42.834 17.8474 43.0146 18.0661 43.2459 18.2195C43.4085 18.3273 43.5909 18.3996 43.7813 18.4327V18.1936C43.5609 18.1471 43.3586 18.0375 43.1992 17.8781C43.0363 17.7152 42.9255 17.5075 42.8808 17.2815C42.8361 17.0555 42.8595 16.8213 42.9482 16.6086C43.0369 16.3959 43.1867 16.2144 43.3787 16.0871C43.5707 15.9597 43.7963 15.8923 44.0267 15.8933C44.3332 15.8947 44.6267 16.0171 44.8435 16.2339C45.0602 16.4506 45.1826 16.7442 45.184 17.0507C45.1851 17.2811 45.1176 17.5066 44.9903 17.6986C44.8629 17.8906 44.6814 18.0405 44.4687 18.1291C44.4426 18.1401 44.4161 18.15 44.3893 18.1589V18.4042C44.6241 18.3404 44.8404 18.216 45.0151 18.0406C45.277 17.7777 45.424 17.4218 45.424 17.0507C45.424 16.773 45.3416 16.5016 45.1872 16.2708C45.0329 16.0401 44.8135 15.8603 44.5569 15.7543C44.3003 15.6483 44.018 15.6208 43.7457 15.6754C43.4735 15.7299 43.2236 15.864 43.0276 16.0607C42.8317 16.2574 42.6985 16.5079 42.645 16.7803C42.5915 17.0528 42.62 17.3349 42.727 17.5912Z" fill="#0F4C81"/>
<path d="M54.5599 37.9787V38.5867H53.9484C53.939 38.6066 53.9266 38.6251 53.9115 38.6413C53.8914 38.6628 53.8672 38.68 53.8402 38.6917C53.8132 38.7034 53.7841 38.7094 53.7547 38.7093V38.6987C53.7172 38.6961 53.6807 38.6852 53.648 38.6667L53.36 38.832H53.312C53.2947 38.833 53.2774 38.829 53.2623 38.8205C53.2472 38.812 53.2348 38.7993 53.2267 38.784C53.2229 38.7776 53.2199 38.7707 53.2177 38.7637C53.216 38.7581 53.2147 38.7523 53.2139 38.7465C53.2122 38.7332 53.2131 38.7198 53.2165 38.7069C53.22 38.694 53.226 38.682 53.2341 38.6714C53.2423 38.6608 53.2524 38.652 53.264 38.6453L53.3643 38.5867H52.3546C52.3584 38.6497 52.3666 38.7126 52.379 38.775C52.4331 39.0471 52.5667 39.297 52.7628 39.4932C52.959 39.6893 53.2089 39.8229 53.481 39.8771C53.7531 39.9312 54.0351 39.9034 54.2915 39.7972C54.5478 39.6911 54.7668 39.5113 54.9209 39.2806C55.0751 39.0499 55.1573 38.7788 55.1573 38.5013C55.1573 38.1293 55.0096 37.7725 54.7465 37.5095C54.4835 37.2464 54.1267 37.0987 53.7547 37.0987C53.4772 37.0987 53.2061 37.1809 52.9754 37.3351C52.7447 37.4892 52.5649 37.7083 52.4588 37.9646L52.453 37.9787H53.6587V37.5947C53.6552 37.5798 53.6551 37.5643 53.6585 37.5494C53.6618 37.5345 53.6684 37.5206 53.6779 37.5086C53.6874 37.4966 53.6995 37.487 53.7132 37.4803C53.727 37.4737 53.7421 37.4702 53.7573 37.4702C53.7726 37.4702 53.7877 37.4737 53.8014 37.4803C53.8152 37.487 53.8273 37.4966 53.8367 37.5086C53.8462 37.5206 53.8529 37.5345 53.8562 37.5494C53.8596 37.5643 53.8595 37.5798 53.856 37.5947V37.9787H54.5599Z" fill="#0F4C81"/>
<path fill-rule="evenodd" clip-rule="evenodd" d="M52.3546 38.5867H53.3643L53.5467 38.48C53.5466 38.4424 53.5571 38.4055 53.5769 38.3734C53.5967 38.3414 53.625 38.3155 53.6587 38.2987V37.9787H52.453C52.3753 38.1722 52.342 38.3799 52.3546 38.5867ZM54.5599 38.5867H53.9484L53.9523 38.5779L53.9552 38.5706L53.9566 38.5666C53.9663 38.5388 53.9702 38.5093 53.968 38.48C53.968 38.4424 53.9575 38.4055 53.9378 38.3734C53.918 38.3414 53.8897 38.3155 53.856 38.2987V37.9787H54.5599V38.5867ZM52.7573 31.0347V30.0373H52.9547V30.8533H54.5547V30.0373V29.4293H54.7573V30.0373V31.0347C54.7573 31.1139 54.7259 31.1898 54.6699 31.2459C54.6138 31.3019 54.5379 31.3333 54.4587 31.3333H53.056C52.9768 31.3333 52.9008 31.3019 52.8448 31.2459C52.7888 31.1898 52.7573 31.1139 52.7573 31.0347ZM48.5333 23.888V23.264V22.656V22.4373L50.9333 22.4427V23.888C50.9333 23.9375 50.9137 23.985 50.8787 24.02C50.8437 24.055 50.7962 24.0747 50.7467 24.0747H48.7147C48.6661 24.0733 48.62 24.053 48.5861 24.0181C48.5522 23.9833 48.5333 23.9366 48.5333 23.888ZM29.1039 22.4739C28.8806 22.259 28.5825 22.1387 28.272 22.1387C27.9537 22.1387 27.6485 22.2651 27.4235 22.4901C27.1984 22.7152 27.072 23.0204 27.072 23.3387H29.472C29.472 23.0427 29.3627 22.7581 29.1664 22.5387C29.1516 22.5221 29.1363 22.5059 29.1205 22.4901L29.1039 22.4739ZM44.0267 18.4533C44.1502 18.4529 44.2721 18.4361 44.3893 18.4042V18.1589C44.1985 18.2225 43.994 18.2358 43.7958 18.1966L43.7813 18.1936V18.4327C43.8619 18.4467 43.944 18.4537 44.0267 18.4533ZM53.643 31.221C53.6727 31.2507 53.7127 31.268 53.7547 31.2693C53.7976 31.2694 53.8389 31.2527 53.8697 31.2228C53.9006 31.193 53.9186 31.1523 53.92 31.1093C53.9131 31.0712 53.893 31.0368 53.8633 31.012C53.8335 30.9872 53.7961 30.9736 53.7573 30.9736C53.7186 30.9736 53.6811 30.9872 53.6514 31.012C53.6217 31.0368 53.6016 31.0712 53.5947 31.1093C53.596 31.1513 53.6133 31.1913 53.643 31.221ZM49.0257 21.9983C49.0507 22.0233 49.0846 22.0373 49.12 22.0373C49.1512 22.038 49.1816 22.0276 49.206 22.0081C49.2303 21.9887 49.2471 21.9612 49.2533 21.9307V21.7013C49.2533 21.666 49.2393 21.6321 49.2143 21.6071C49.1893 21.5821 49.1554 21.568 49.12 21.568C49.0846 21.568 49.0507 21.5821 49.0257 21.6071C49.0007 21.6321 48.9867 21.666 48.9867 21.7013V21.904C48.9867 21.9394 49.0007 21.9733 49.0257 21.9983ZM50.2684 21.9983C50.2934 22.0233 50.3273 22.0373 50.3627 22.0373C50.3939 22.038 50.4243 22.0276 50.4487 22.0081C50.473 21.9887 50.4898 21.9612 50.496 21.9307V21.7013C50.496 21.666 50.482 21.6321 50.457 21.6071C50.4319 21.5821 50.398 21.568 50.3627 21.568C50.3273 21.568 50.2934 21.5821 50.2684 21.6071C50.2434 21.6321 50.2293 21.666 50.2293 21.7013V21.904C50.2293 21.9394 50.2434 21.9733 50.2684 21.9983ZM50.944 22.0427V22.3573L48.544 22.3467V22.0427C48.5433 22.0182 48.5474 21.9937 48.5561 21.9708C48.5649 21.9479 48.578 21.9269 48.5949 21.9091C48.6117 21.8913 48.6319 21.8769 48.6543 21.8669C48.6767 21.8569 48.7008 21.8514 48.7253 21.8507H48.896V21.904C48.896 21.9634 48.9196 22.0204 48.9616 22.0624C49.0036 22.1044 49.0606 22.128 49.12 22.128C49.1794 22.128 49.2364 22.1044 49.2784 22.0624C49.3204 22.0204 49.344 21.9634 49.344 21.904V21.8507H50.144V21.904C50.1433 21.9332 50.1484 21.9622 50.1591 21.9893C50.1698 22.0165 50.1857 22.0412 50.2061 22.0621C50.2265 22.083 50.2509 22.0995 50.2777 22.1109C50.3046 22.1222 50.3335 22.128 50.3627 22.128C50.4221 22.128 50.4791 22.1044 50.5211 22.0624C50.5631 22.0204 50.5867 21.9634 50.5867 21.904V21.8507H50.7573C50.8073 21.8521 50.8548 21.8729 50.8897 21.9088C50.9245 21.9446 50.944 21.9927 50.944 22.0427ZM50.0641 22.9228C50.0811 22.9058 50.0907 22.8827 50.0907 22.8587V22.6827C50.0914 22.6706 50.0896 22.6584 50.0854 22.6471C50.0811 22.6357 50.0744 22.6254 50.0659 22.6168C50.0573 22.6082 50.047 22.6016 50.0356 22.5973C50.0243 22.593 50.0121 22.5912 50 22.592H49.824C49.8 22.592 49.7769 22.6016 49.7599 22.6186C49.7429 22.6356 49.7333 22.6586 49.7333 22.6827V22.8587C49.7346 22.8823 49.7446 22.9046 49.7613 22.9214C49.778 22.9381 49.8004 22.9481 49.824 22.9493H50C50.0241 22.9493 50.0471 22.9398 50.0641 22.9228ZM49.3333 22.9493H49.4559H49.5147C49.5378 22.948 49.5595 22.9378 49.5754 22.921C49.5912 22.9041 49.6 22.8818 49.6 22.8587V22.6827C49.6007 22.671 49.5991 22.6593 49.5951 22.6484C49.5911 22.6374 49.585 22.6273 49.577 22.6189C49.569 22.6104 49.5593 22.6036 49.5486 22.599C49.5379 22.5944 49.5263 22.592 49.5147 22.592H49.3333C49.3217 22.592 49.3101 22.5944 49.2994 22.599C49.2887 22.6036 49.279 22.6104 49.271 22.6189C49.263 22.6273 49.2569 22.6374 49.2529 22.6484C49.252 22.6509 49.2512 22.6534 49.2505 22.656C49.2483 22.6647 49.2474 22.6737 49.248 22.6827V22.8587C49.248 22.8818 49.2568 22.9041 49.2726 22.921C49.2885 22.9378 49.3102 22.948 49.3333 22.9493ZM49.0387 22.9214C49.0554 22.9046 49.0654 22.8823 49.0667 22.8587V22.6827C49.0667 22.6735 49.0653 22.6646 49.0627 22.656C49.0583 22.642 49.0507 22.6291 49.0401 22.6186C49.0231 22.6016 49 22.592 48.976 22.592H48.8C48.776 22.592 48.7529 22.6016 48.7359 22.6186C48.7253 22.6291 48.7177 22.642 48.7133 22.656C48.712 22.6604 48.711 22.6649 48.7103 22.6695C48.7097 22.6738 48.7093 22.6782 48.7093 22.6827V22.8587C48.7106 22.8823 48.7206 22.9046 48.7373 22.9214C48.7541 22.9381 48.7764 22.9481 48.8 22.9493H48.976C48.9996 22.9481 49.022 22.9381 49.0387 22.9214ZM48.7093 23.168V23.264V23.344C48.7093 23.368 48.7189 23.3911 48.7359 23.4081C48.7529 23.4251 48.776 23.4347 48.8 23.4347H48.976C49 23.4347 49.0231 23.4251 49.0401 23.4081C49.0571 23.3911 49.0667 23.368 49.0667 23.344V23.264V23.168C49.0653 23.1449 49.0552 23.1232 49.0383 23.1073C49.0214 23.0914 48.9992 23.0826 48.976 23.0827H48.8C48.7769 23.0826 48.7546 23.0914 48.7377 23.1073C48.7208 23.1232 48.7107 23.1449 48.7093 23.168ZM49.5951 23.3783C49.5991 23.3673 49.6007 23.3556 49.6 23.344V23.168C49.6 23.1454 49.591 23.1237 49.575 23.1077C49.559 23.0917 49.5373 23.0827 49.5147 23.0827H49.4559H49.3333C49.3107 23.0827 49.289 23.0917 49.273 23.1077C49.257 23.1237 49.248 23.1454 49.248 23.168V23.264V23.344C49.2473 23.3556 49.2489 23.3673 49.2529 23.3783C49.2569 23.3893 49.263 23.3993 49.271 23.4078C49.279 23.4163 49.2887 23.4231 49.2994 23.4277C49.3101 23.4323 49.3217 23.4347 49.3333 23.4347H49.5147C49.5263 23.4347 49.5379 23.4323 49.5486 23.4277C49.5593 23.4231 49.569 23.4163 49.577 23.4078C49.585 23.3993 49.5911 23.3893 49.5951 23.3783ZM49.0667 23.8347C49.0654 23.8583 49.0554 23.8806 49.0387 23.8974C49.022 23.9141 48.9996 23.9241 48.976 23.9253H48.8C48.7764 23.9241 48.7541 23.9141 48.7373 23.8974C48.7206 23.8806 48.7106 23.8583 48.7093 23.8347V23.6587C48.7106 23.635 48.7206 23.6127 48.7373 23.596C48.7541 23.5792 48.7764 23.5693 48.8 23.568H48.976C48.9996 23.5693 49.022 23.5792 49.0387 23.596C49.0554 23.6127 49.0654 23.635 49.0667 23.6587V23.8347ZM49.5754 23.897C49.5912 23.8801 49.6 23.8578 49.6 23.8347V23.6587C49.6 23.6355 49.5912 23.6132 49.5754 23.5964C49.5595 23.5795 49.5378 23.5694 49.5147 23.568H49.3333C49.3102 23.5694 49.2885 23.5795 49.2726 23.5964C49.2568 23.6132 49.248 23.6355 49.248 23.6587V23.8347C49.248 23.8578 49.2568 23.8801 49.2726 23.897C49.2885 23.9138 49.3102 23.924 49.3333 23.9253H49.5147C49.5378 23.924 49.5595 23.9138 49.5754 23.897ZM50.0907 23.8347C50.0907 23.8587 50.0811 23.8818 50.0641 23.8988C50.0471 23.9158 50.0241 23.9253 50 23.9253H49.824C49.8004 23.9241 49.778 23.9141 49.7613 23.8974C49.7446 23.8806 49.7346 23.8583 49.7333 23.8347V23.6587C49.7346 23.635 49.7446 23.6127 49.7613 23.596C49.778 23.5792 49.8004 23.5693 49.824 23.568H50C50.0241 23.568 50.0471 23.5776 50.0641 23.5946C50.0811 23.6116 50.0907 23.6346 50.0907 23.6587V23.8347ZM50.0854 23.3796C50.0896 23.3683 50.0914 23.3561 50.0907 23.344V23.168C50.0907 23.1563 50.0883 23.1448 50.0837 23.1341C50.0791 23.1234 50.0723 23.1137 50.0638 23.1057C50.0553 23.0977 50.0453 23.0915 50.0343 23.0876C50.0233 23.0836 50.0117 23.0819 50 23.0827H49.824C49.8008 23.0826 49.7786 23.0914 49.7617 23.1073C49.7448 23.1232 49.7347 23.1449 49.7333 23.168V23.344C49.7333 23.368 49.7429 23.3911 49.7599 23.4081C49.7769 23.4251 49.8 23.4347 49.824 23.4347H50C50.0121 23.4355 50.0243 23.4336 50.0356 23.4294C50.047 23.4251 50.0573 23.4184 50.0659 23.4099C50.0744 23.4013 50.0811 23.391 50.0854 23.3796ZM50.5707 23.072V23.8027C50.5797 23.8072 50.5874 23.8141 50.593 23.8225C50.5986 23.8309 50.6019 23.8406 50.6027 23.8507C50.602 23.8598 50.5995 23.8687 50.5954 23.8768C50.5913 23.885 50.5856 23.8923 50.5786 23.8982C50.5717 23.9041 50.5637 23.9087 50.555 23.9115C50.5463 23.9143 50.5371 23.9154 50.528 23.9147C50.509 23.9162 50.4902 23.9104 50.4753 23.8986C50.4604 23.8867 50.4507 23.8695 50.448 23.8507C50.4496 23.8408 50.4533 23.8315 50.4588 23.8232C50.4643 23.8149 50.4715 23.8079 50.48 23.8027V23.072C50.4163 23.0656 50.3578 23.0342 50.3173 22.9847C50.2768 22.9352 50.2576 22.8717 50.264 22.808C50.2704 22.7443 50.3018 22.6858 50.3513 22.6453C50.4008 22.6048 50.4644 22.5856 50.528 22.592C50.5917 22.592 50.6527 22.6173 50.6977 22.6623C50.7427 22.7073 50.768 22.7684 50.768 22.832C50.7682 22.8921 50.7459 22.9501 50.7054 22.9946C50.6649 23.039 50.6092 23.0667 50.5493 23.072H50.5707Z" fill="#0F4C81"/>
<path d="M30.7455 109.1C30.4255 109.1 30.0655 109.067 29.6655 109C29.2788 108.947 28.9055 108.82 28.5455 108.62C28.1855 108.407 27.8921 108.093 27.6655 107.68C27.4388 107.267 27.3255 106.7 27.3255 105.98V97.46C27.3255 96.8333 27.4188 96.3133 27.6055 95.9C27.7921 95.4733 28.0388 95.14 28.3455 94.9C28.6655 94.66 29.0121 94.4933 29.3855 94.4C29.7721 94.2933 30.1521 94.24 30.5255 94.24C31.4588 94.24 32.2988 94.2533 33.0455 94.28C33.7921 94.3067 34.4721 94.3333 35.0855 94.36C35.7121 94.3867 36.2921 94.42 36.8255 94.46V96.52H31.2455C30.7921 96.52 30.4321 96.6333 30.1655 96.86C29.9121 97.0867 29.7855 97.44 29.7855 97.92V100.54L35.9255 100.68V102.62L29.7855 102.76V105.3C29.7855 105.7 29.8521 106.007 29.9855 106.22C30.1321 106.433 30.3121 106.58 30.5255 106.66C30.7521 106.74 30.9855 106.78 31.2255 106.78H36.8255V108.84C36.2388 108.893 35.5988 108.94 34.9055 108.98C34.2121 109.007 33.5055 109.027 32.7855 109.04C32.0788 109.067 31.3988 109.087 30.7455 109.1ZM38.8605 109V94.24H41.3205V109H38.8605ZM48.0953 109.12C47.7353 109.12 47.3486 109.107 46.9353 109.08C46.5353 109.067 46.122 109.04 45.6953 109C45.282 108.947 44.8886 108.9 44.5153 108.86C44.142 108.807 43.8086 108.747 43.5153 108.68V106.74C43.8886 106.767 44.322 106.793 44.8153 106.82C45.322 106.847 45.8486 106.867 46.3953 106.88C46.942 106.893 47.4686 106.9 47.9753 106.9C48.5086 106.9 48.982 106.853 49.3953 106.76C49.8086 106.653 50.1286 106.473 50.3553 106.22C50.582 105.967 50.6953 105.607 50.6953 105.14V104.44C50.6953 103.92 50.5486 103.52 50.2553 103.24C49.962 102.96 49.5286 102.82 48.9553 102.82H47.5753C46.2286 102.82 45.1886 102.527 44.4553 101.94C43.7353 101.353 43.3753 100.347 43.3753 98.92V98.16C43.3753 96.7333 43.7686 95.7067 44.5553 95.08C45.3553 94.44 46.4953 94.12 47.9753 94.12C48.482 94.12 49.002 94.1467 49.5353 94.2C50.082 94.24 50.602 94.2933 51.0953 94.36C51.5886 94.4267 52.0086 94.5 52.3553 94.58V96.52C51.7686 96.48 51.0953 96.44 50.3353 96.4C49.5886 96.36 48.8953 96.34 48.2553 96.34C47.7486 96.34 47.302 96.3933 46.9153 96.5C46.5286 96.6067 46.2353 96.8 46.0353 97.08C45.8353 97.3467 45.7353 97.7467 45.7353 98.28V98.76C45.7353 99.3867 45.902 99.8267 46.2353 100.08C46.582 100.333 47.0753 100.46 47.7153 100.46H49.2553C50.122 100.46 50.8353 100.62 51.3953 100.94C51.9553 101.26 52.3686 101.7 52.6353 102.26C52.9153 102.807 53.0553 103.433 53.0553 104.14V105.08C53.0553 106.173 52.842 107.013 52.4153 107.6C51.9886 108.187 51.402 108.587 50.6553 108.8C49.9086 109.013 49.0553 109.12 48.0953 109.12Z" fill="#262626"/>
</svg>
