<svg width="56" height="56" viewBox="0 0 56 56" fill="none" xmlns="http://www.w3.org/2000/svg">
<path d="M55.9051 0H0.0948774V56H55.9051V0Z" fill="#006EB8"/>
<path d="M56 56H0L0.0948774 32.1048C0.0948774 32.1048 6.31214 33.712 7.86366 33.6952C11.8597 33.6448 13.8968 33.3592 17.3961 32.1048C21.0417 30.7395 24.5464 29.0215 27.8605 26.9752C30.7459 25.1552 36.4162 21.7448 39.4411 20.58C40.6578 20.1096 48.3205 18.4184 50.8152 18.5472C52.5576 18.6927 54.2709 19.0829 55.9051 19.7064" fill="#29BAED"/>
<path d="M55.8382 19.6336C55.8382 19.6336 51.3119 16.1616 41.4726 16.7552C31.6332 17.3488 20.7726 25.9224 14.0474 29.3104C10.883 30.9008 5.6759 32.6704 1.64082 32.2672C1.36177 32.2672 1.26131 32.228 0.98226 32.1888L0.234403 32.0992C0.234403 32.0992 7.91389 35.1232 14.9348 33.2192C25.2095 30.4864 34.4963 21.3416 45.1393 19.5384C52.2551 18.3288 55.8382 19.6336 55.8382 19.6336Z" fill="white"/>
<path d="M55.8382 11.7936C55.8382 11.7936 51.3119 8.3216 41.4726 8.9152C31.6332 9.5088 20.7726 18.0824 14.0474 21.4704C10.883 23.0608 5.6759 24.8304 1.64082 24.4272C1.36177 24.4272 1.26131 24.388 0.98226 24.3488L0.234403 24.2592C0.234403 24.2592 7.91389 27.2832 14.9348 25.3792C25.2095 22.6464 34.4963 13.5016 45.1393 11.6984C52.2551 10.4888 55.8382 11.7936 55.8382 11.7936Z" fill="white"/>
<path d="M55.8382 3.9536C55.8382 3.9536 51.3119 0.4816 41.4726 1.0752C31.6332 1.6688 20.7726 10.2424 14.0474 13.6304C10.883 15.2208 5.6759 16.9904 1.64082 16.5872C1.36177 16.5592 1.26131 16.548 0.98226 16.5088L0.234403 16.4192C0.234403 16.4192 7.91389 19.4432 14.9348 17.5392C25.2095 14.8064 34.4963 5.6616 45.1393 3.8584C52.2551 2.6488 55.8382 3.9536 55.8382 3.9536Z" fill="white"/>
<path d="M5.06199 43.8312H0.987841L1.40642 42.1512H14.8455L14.4269 43.8312H13.9302C13.3408 43.8174 12.7512 43.8492 12.1666 43.9264C10.6542 44.1336 10.3305 44.3464 9.7947 45.3824C9.66341 45.7069 9.5607 46.0423 9.48774 46.3848C8.28224 51.2064 7.09348 56 7.09348 56H2.40542L5.32988 44.24C5.38402 44.1969 5.41991 44.1349 5.43034 44.0664C5.43075 44.0239 5.41812 43.9823 5.39415 43.9472C5.37019 43.9122 5.33606 43.8853 5.29639 43.8704C5.21987 43.849 5.14129 43.8359 5.06199 43.8312Z" fill="white"/>
<path d="M17.4686 56L16.012 42.1792H20.3038C20.3038 42.1792 20.7614 47.7792 21.2414 53.3792C21.2804 53.844 21.3195 53.9784 21.4144 54.0904C21.4327 54.1099 21.4547 54.1254 21.4792 54.136C21.5037 54.1467 21.53 54.1521 21.5567 54.1521C21.5834 54.1521 21.6098 54.1467 21.6342 54.136C21.6587 54.1254 21.6808 54.1099 21.699 54.0904C21.7986 53.9891 21.8883 53.8784 21.9669 53.76C22.0618 53.5696 22.179 53.3792 22.179 53.3792L25.8178 47.096C26.0286 46.8068 26.1995 46.4904 26.3257 46.1552C26.8838 44.828 26.3257 43.8312 25.1425 43.6352C24.8388 43.5801 24.5297 43.5613 24.2216 43.5792C23.8756 43.5792 23.5296 43.5792 23.5296 43.5792H23.3957L23.764 42.14H31.1198L22.6757 56H17.4686Z" fill="white"/>
<path d="M35.5735 56H31.0584L33.5475 45.9536L33.6815 45.4552C33.694 45.3515 33.7126 45.2487 33.7373 45.1472C33.7373 45.0128 33.7764 44.9008 33.7931 44.7832C33.8322 43.8424 33.5475 43.5568 32.476 43.4952C32.3552 43.4873 32.234 43.4873 32.1132 43.4952H31.7337L32.2527 42.1736H39.0225L35.5735 56Z" fill="white"/>
<path d="M42.639 56H38.1017L41.5507 42.1736H49.9725C50.2404 42.1736 50.4859 42.1736 50.7371 42.2072C51.8038 42.2723 52.8463 42.5543 53.8011 43.036C55.9051 44.24 56.4632 46.8272 54.281 49.1288C52.6067 50.876 49.7827 51.9288 45.184 51.8224C44.9942 51.8224 44.8212 51.8224 44.6259 51.7832L44.9552 50.4728H45.5635L46.2332 50.4168C48.9735 50.0528 50.2739 49.1064 50.7315 47.7848C51.4236 45.7688 50.3688 44.0552 48.4991 43.7472C48.3098 43.7082 48.1174 43.6857 47.9243 43.68H45.6918L42.639 56Z" fill="white"/>
</svg>
